<?xml version="1.0" standalone="no"?>
 <!DOCTYPE svg PUBLIC "-//W3C//DTD SVG 1.1//EN" 
 "http://www.w3.org/Graphics/SVG/1.1/DTD/svg11.dtd"> 
<svg
  xmlns:svg="http://www.w3.org/2000/svg"
  xmlns="http://www.w3.org/2000/svg"
  xmlns:xlink="http://www.w3.org/1999/xlink"
  version="1.1"
  width="29.700220cm" height="21.000720cm" viewBox="0 0 297002200 210007200">
<title>SVG Picture created as NCV68261-F_Mask.svg date 2022/09/03 12:37:31 </title>
  <desc>Picture generated by PCBNEW </desc>
<g style="fill:#000000; fill-opacity:1.000000;stroke:#000000; stroke-opacity:1.000000;
stroke-linecap:round; stroke-linejoin:round;"
 transform="translate(0 0) scale(1 1)">
</g>
<g style="fill:#000000; fill-opacity:0.0; 
stroke:#000000; stroke-width:0.000000; stroke-opacity:1; 
stroke-linecap:round; stroke-linejoin:round;">
<g >
</g>
<g style="fill:#000000; fill-opacity:0.0; 
stroke:#000000; stroke-width:1.000000; stroke-opacity:1; 
stroke-linecap:round; stroke-linejoin:round;">
</g>
<g style="fill:#000000; fill-opacity:1.0; 
stroke:#000000; stroke-width:1.000000; stroke-opacity:1; 
stroke-linecap:round; stroke-linejoin:round;">
<path style="fill:#000000; fill-opacity:1.0; 
stroke:#000000; stroke-width:1.000000; stroke-opacity:1; 
stroke-linecap:round; stroke-linejoin:round;fill-rule:evenodd;"
d="M 139225000.000000,83925000.000000
139225000.000000,83575000.000000
139875000.000000,83575000.000000
139875000.000000,83925000.000000
Z" /> 
<path style="fill:#000000; fill-opacity:1.0; 
stroke:#000000; stroke-width:1.000000; stroke-opacity:1; 
stroke-linecap:round; stroke-linejoin:round;fill-rule:evenodd;"
d="M 139225000.000000,84575000.000000
139225000.000000,84225000.000000
139875000.000000,84225000.000000
139875000.000000,84575000.000000
Z" /> 
<path style="fill:#000000; fill-opacity:1.0; 
stroke:#000000; stroke-width:1.000000; stroke-opacity:1; 
stroke-linecap:round; stroke-linejoin:round;fill-rule:evenodd;"
d="M 139225000.000000,85225000.000000
139225000.000000,84875000.000000
139875000.000000,84875000.000000
139875000.000000,85225000.000000
Z" /> 
<path style="fill:#000000; fill-opacity:1.0; 
stroke:#000000; stroke-width:1.000000; stroke-opacity:1; 
stroke-linecap:round; stroke-linejoin:round;fill-rule:evenodd;"
d="M 141325000.000000,85225000.000000
141325000.000000,84875000.000000
141975000.000000,84875000.000000
141975000.000000,85225000.000000
Z" /> 
<path style="fill:#000000; fill-opacity:1.0; 
stroke:#000000; stroke-width:1.000000; stroke-opacity:1; 
stroke-linecap:round; stroke-linejoin:round;fill-rule:evenodd;"
d="M 141325000.000000,84575000.000000
141325000.000000,84225000.000000
141975000.000000,84225000.000000
141975000.000000,84575000.000000
Z" /> 
<path style="fill:#000000; fill-opacity:1.0; 
stroke:#000000; stroke-width:1.000000; stroke-opacity:1; 
stroke-linecap:round; stroke-linejoin:round;fill-rule:evenodd;"
d="M 141325000.000000,83925000.000000
141325000.000000,83575000.000000
141975000.000000,83575000.000000
141975000.000000,83925000.000000
Z" /> 
<path style="fill:#000000; fill-opacity:1.0; 
stroke:#000000; stroke-width:1.000000; stroke-opacity:1; 
stroke-linecap:round; stroke-linejoin:round;fill-rule:evenodd;"
d="M 140100000.000000,85200000.000000
140100000.000000,83600000.000000
141100000.000000,83600000.000000
141100000.000000,85200000.000000
Z" /> 
</g>
<g >
</g>
<g style="fill:#000000; fill-opacity:1.0; 
stroke:#000000; stroke-width:1.000000; stroke-opacity:1; 
stroke-linecap:round; stroke-linejoin:round;">
<path style="fill:#000000; fill-opacity:1.0; 
stroke:#000000; stroke-width:1.000000; stroke-opacity:1; 
stroke-linecap:round; stroke-linejoin:round;fill-rule:evenodd;"
d="M 133500000.000000,82550000.000000
133404329.000000,82530970.000000
133323223.000000,82476777.000000
133269030.000000,82395671.000000
133250000.000000,82300000.000000
133250000.000000,81650000.000000
133269030.000000,81554329.000000
133323223.000000,81473223.000000
133404329.000000,81419030.000000
133500000.000000,81400000.000000
135700000.000000,81400000.000000
135795671.000000,81419030.000000
135876777.000000,81473223.000000
135930970.000000,81554329.000000
135950000.000000,81650000.000000
135950000.000000,82300000.000000
135930970.000000,82395671.000000
135876777.000000,82476777.000000
135795671.000000,82530970.000000
135700000.000000,82550000.000000
Z" /> 
<path style="fill:#000000; fill-opacity:1.0; 
stroke:#000000; stroke-width:1.000000; stroke-opacity:1; 
stroke-linecap:round; stroke-linejoin:round;fill-rule:evenodd;"
d="M 133500000.000000,79600000.000000
133404329.000000,79580970.000000
133323223.000000,79526777.000000
133269030.000000,79445671.000000
133250000.000000,79350000.000000
133250000.000000,78700000.000000
133269030.000000,78604329.000000
133323223.000000,78523223.000000
133404329.000000,78469030.000000
133500000.000000,78450000.000000
135700000.000000,78450000.000000
135795671.000000,78469030.000000
135876777.000000,78523223.000000
135930970.000000,78604329.000000
135950000.000000,78700000.000000
135950000.000000,79350000.000000
135930970.000000,79445671.000000
135876777.000000,79526777.000000
135795671.000000,79580970.000000
135700000.000000,79600000.000000
Z" /> 
</g>
<g >
</g>
<g style="fill:#000000; fill-opacity:1.0; 
stroke:#000000; stroke-width:1.000000; stroke-opacity:1; 
stroke-linecap:round; stroke-linejoin:round;">
<path style="fill:#000000; fill-opacity:1.0; 
stroke:#000000; stroke-width:1.000000; stroke-opacity:1; 
stroke-linecap:round; stroke-linejoin:round;fill-rule:evenodd;"
d="M 135975000.000000,83725000.000000
135990224.000000,83648463.000000
136033579.000000,83583579.000000
136098463.000000,83540224.000000
136175000.000000,83525000.000000
136575000.000000,83525000.000000
136651537.000000,83540224.000000
136716421.000000,83583579.000000
136759776.000000,83648463.000000
136775000.000000,83725000.000000
136775000.000000,84275000.000000
136759776.000000,84351537.000000
136716421.000000,84416421.000000
136651537.000000,84459776.000000
136575000.000000,84475000.000000
136175000.000000,84475000.000000
136098463.000000,84459776.000000
136033579.000000,84416421.000000
135990224.000000,84351537.000000
135975000.000000,84275000.000000
Z" /> 
<path style="fill:#000000; fill-opacity:1.0; 
stroke:#000000; stroke-width:1.000000; stroke-opacity:1; 
stroke-linecap:round; stroke-linejoin:round;fill-rule:evenodd;"
d="M 137625000.000000,83725000.000000
137640224.000000,83648463.000000
137683579.000000,83583579.000000
137748463.000000,83540224.000000
137825000.000000,83525000.000000
138225000.000000,83525000.000000
138301537.000000,83540224.000000
138366421.000000,83583579.000000
138409776.000000,83648463.000000
138425000.000000,83725000.000000
138425000.000000,84275000.000000
138409776.000000,84351537.000000
138366421.000000,84416421.000000
138301537.000000,84459776.000000
138225000.000000,84475000.000000
137825000.000000,84475000.000000
137748463.000000,84459776.000000
137683579.000000,84416421.000000
137640224.000000,84351537.000000
137625000.000000,84275000.000000
Z" /> 
</g>
<g >
</g>
<g style="fill:#000000; fill-opacity:1.0; 
stroke:#000000; stroke-width:1.000000; stroke-opacity:1; 
stroke-linecap:round; stroke-linejoin:round;">
<path style="fill:#000000; fill-opacity:1.0; 
stroke:#000000; stroke-width:1.000000; stroke-opacity:1; 
stroke-linecap:round; stroke-linejoin:round;fill-rule:evenodd;"
d="M 144650000.000000,81565000.000000
144650000.000000,81985000.000000
143950000.000000,81985000.000000
143950000.000000,81565000.000000
Z" /> 
<path style="fill:#000000; fill-opacity:1.0; 
stroke:#000000; stroke-width:1.000000; stroke-opacity:1; 
stroke-linecap:round; stroke-linejoin:round;fill-rule:evenodd;"
d="M 144650000.000000,80915000.000000
144650000.000000,81335000.000000
143950000.000000,81335000.000000
143950000.000000,80915000.000000
Z" /> 
<path style="fill:#000000; fill-opacity:1.0; 
stroke:#000000; stroke-width:1.000000; stroke-opacity:1; 
stroke-linecap:round; stroke-linejoin:round;fill-rule:evenodd;"
d="M 144650000.000000,80265000.000000
144650000.000000,80685000.000000
143950000.000000,80685000.000000
143950000.000000,80265000.000000
Z" /> 
<path style="fill:#000000; fill-opacity:1.0; 
stroke:#000000; stroke-width:1.000000; stroke-opacity:1; 
stroke-linecap:round; stroke-linejoin:round;fill-rule:evenodd;"
d="M 144650000.000000,79615000.000000
144650000.000000,80035000.000000
143950000.000000,80035000.000000
143950000.000000,79615000.000000
Z" /> 
<path style="fill:#000000; fill-opacity:1.0; 
stroke:#000000; stroke-width:1.000000; stroke-opacity:1; 
stroke-linecap:round; stroke-linejoin:round;fill-rule:evenodd;"
d="M 140950000.000000,81565000.000000
141490000.000000,81565000.000000
141490000.000000,81335000.000000
140950000.000000,81335000.000000
140950000.000000,80915000.000000
141490000.000000,80915000.000000
141490000.000000,80685000.000000
140950000.000000,80685000.000000
140950000.000000,80265000.000000
141490000.000000,80265000.000000
141490000.000000,80035000.000000
140950000.000000,80035000.000000
140950000.000000,79615000.000000
143200000.000000,79615000.000000
143200000.000000,81985000.000000
140950000.000000,81985000.000000
Z" /> 
</g>
<g >
</g>
<g style="fill:#000000; fill-opacity:1.0; 
stroke:#000000; stroke-width:1.000000; stroke-opacity:1; 
stroke-linecap:round; stroke-linejoin:round;">
<path style="fill:#000000; fill-opacity:1.0; 
stroke:#000000; stroke-width:1.000000; stroke-opacity:1; 
stroke-linecap:round; stroke-linejoin:round;fill-rule:evenodd;"
d="M 145500000.000000,82550000.000000
145404329.000000,82530970.000000
145323223.000000,82476777.000000
145269030.000000,82395671.000000
145250000.000000,82300000.000000
145250000.000000,81650000.000000
145269030.000000,81554329.000000
145323223.000000,81473223.000000
145404329.000000,81419030.000000
145500000.000000,81400000.000000
147700000.000000,81400000.000000
147795671.000000,81419030.000000
147876777.000000,81473223.000000
147930970.000000,81554329.000000
147950000.000000,81650000.000000
147950000.000000,82300000.000000
147930970.000000,82395671.000000
147876777.000000,82476777.000000
147795671.000000,82530970.000000
147700000.000000,82550000.000000
Z" /> 
<path style="fill:#000000; fill-opacity:1.0; 
stroke:#000000; stroke-width:1.000000; stroke-opacity:1; 
stroke-linecap:round; stroke-linejoin:round;fill-rule:evenodd;"
d="M 145500000.000000,79600000.000000
145404329.000000,79580970.000000
145323223.000000,79526777.000000
145269030.000000,79445671.000000
145250000.000000,79350000.000000
145250000.000000,78700000.000000
145269030.000000,78604329.000000
145323223.000000,78523223.000000
145404329.000000,78469030.000000
145500000.000000,78450000.000000
147700000.000000,78450000.000000
147795671.000000,78469030.000000
147876777.000000,78523223.000000
147930970.000000,78604329.000000
147950000.000000,78700000.000000
147950000.000000,79350000.000000
147930970.000000,79445671.000000
147876777.000000,79526777.000000
147795671.000000,79580970.000000
147700000.000000,79600000.000000
Z" /> 
</g>
<g >
</g>
<g style="fill:#000000; fill-opacity:1.0; 
stroke:#000000; stroke-width:1.000000; stroke-opacity:1; 
stroke-linecap:round; stroke-linejoin:round;">
<path style="fill:#000000; fill-opacity:1.0; 
stroke:#000000; stroke-width:1.000000; stroke-opacity:1; 
stroke-linecap:round; stroke-linejoin:round;fill-rule:evenodd;"
d="M 144675000.000000,83175000.000000
144751537.000000,83190224.000000
144816421.000000,83233579.000000
144859776.000000,83298463.000000
144875000.000000,83375000.000000
144875000.000000,83775000.000000
144859776.000000,83851537.000000
144816421.000000,83916421.000000
144751537.000000,83959776.000000
144675000.000000,83975000.000000
144125000.000000,83975000.000000
144048463.000000,83959776.000000
143983579.000000,83916421.000000
143940224.000000,83851537.000000
143925000.000000,83775000.000000
143925000.000000,83375000.000000
143940224.000000,83298463.000000
143983579.000000,83233579.000000
144048463.000000,83190224.000000
144125000.000000,83175000.000000
Z" /> 
<path style="fill:#000000; fill-opacity:1.0; 
stroke:#000000; stroke-width:1.000000; stroke-opacity:1; 
stroke-linecap:round; stroke-linejoin:round;fill-rule:evenodd;"
d="M 144675000.000000,84825000.000000
144751537.000000,84840224.000000
144816421.000000,84883579.000000
144859776.000000,84948463.000000
144875000.000000,85025000.000000
144875000.000000,85425000.000000
144859776.000000,85501537.000000
144816421.000000,85566421.000000
144751537.000000,85609776.000000
144675000.000000,85625000.000000
144125000.000000,85625000.000000
144048463.000000,85609776.000000
143983579.000000,85566421.000000
143940224.000000,85501537.000000
143925000.000000,85425000.000000
143925000.000000,85025000.000000
143940224.000000,84948463.000000
143983579.000000,84883579.000000
144048463.000000,84840224.000000
144125000.000000,84825000.000000
Z" /> 
</g>
<g >
</g>
<g style="fill:#000000; fill-opacity:1.0; 
stroke:#000000; stroke-width:1.000000; stroke-opacity:1; 
stroke-linecap:round; stroke-linejoin:round;">
<path style="fill:#000000; fill-opacity:1.0; 
stroke:#000000; stroke-width:1.000000; stroke-opacity:1; 
stroke-linecap:round; stroke-linejoin:round;fill-rule:evenodd;"
d="M 136550000.000000,80035000.000000
136550000.000000,79615000.000000
137250000.000000,79615000.000000
137250000.000000,80035000.000000
Z" /> 
<path style="fill:#000000; fill-opacity:1.0; 
stroke:#000000; stroke-width:1.000000; stroke-opacity:1; 
stroke-linecap:round; stroke-linejoin:round;fill-rule:evenodd;"
d="M 136550000.000000,80685000.000000
136550000.000000,80265000.000000
137250000.000000,80265000.000000
137250000.000000,80685000.000000
Z" /> 
<path style="fill:#000000; fill-opacity:1.0; 
stroke:#000000; stroke-width:1.000000; stroke-opacity:1; 
stroke-linecap:round; stroke-linejoin:round;fill-rule:evenodd;"
d="M 136550000.000000,81335000.000000
136550000.000000,80915000.000000
137250000.000000,80915000.000000
137250000.000000,81335000.000000
Z" /> 
<path style="fill:#000000; fill-opacity:1.0; 
stroke:#000000; stroke-width:1.000000; stroke-opacity:1; 
stroke-linecap:round; stroke-linejoin:round;fill-rule:evenodd;"
d="M 136550000.000000,81985000.000000
136550000.000000,81565000.000000
137250000.000000,81565000.000000
137250000.000000,81985000.000000
Z" /> 
<path style="fill:#000000; fill-opacity:1.0; 
stroke:#000000; stroke-width:1.000000; stroke-opacity:1; 
stroke-linecap:round; stroke-linejoin:round;fill-rule:evenodd;"
d="M 140250000.000000,80035000.000000
139710000.000000,80035000.000000
139710000.000000,80265000.000000
140250000.000000,80265000.000000
140250000.000000,80685000.000000
139710000.000000,80685000.000000
139710000.000000,80915000.000000
140250000.000000,80915000.000000
140250000.000000,81335000.000000
139710000.000000,81335000.000000
139710000.000000,81565000.000000
140250000.000000,81565000.000000
140250000.000000,81985000.000000
138000000.000000,81985000.000000
138000000.000000,79615000.000000
140250000.000000,79615000.000000
Z" /> 
</g>
<g >
</g>
<g style="fill:#000000; fill-opacity:1.0; 
stroke:#000000; stroke-width:1.000000; stroke-opacity:1; 
stroke-linecap:round; stroke-linejoin:round;">
<path style="fill:#000000; fill-opacity:1.0; 
stroke:#000000; stroke-width:1.000000; stroke-opacity:1; 
stroke-linecap:round; stroke-linejoin:round;fill-rule:evenodd;"
d="M 145750000.000000,85625000.000000
145663896.000000,85607873.000000
145590901.000000,85559099.000000
145542127.000000,85486104.000000
145525000.000000,85400000.000000
145525000.000000,84950000.000000
145542127.000000,84863896.000000
145590901.000000,84790901.000000
145663896.000000,84742127.000000
145750000.000000,84725000.000000
146250000.000000,84725000.000000
146336104.000000,84742127.000000
146409099.000000,84790901.000000
146457873.000000,84863896.000000
146475000.000000,84950000.000000
146475000.000000,85400000.000000
146457873.000000,85486104.000000
146409099.000000,85559099.000000
146336104.000000,85607873.000000
146250000.000000,85625000.000000
Z" /> 
<path style="fill:#000000; fill-opacity:1.0; 
stroke:#000000; stroke-width:1.000000; stroke-opacity:1; 
stroke-linecap:round; stroke-linejoin:round;fill-rule:evenodd;"
d="M 145750000.000000,84075000.000000
145663896.000000,84057873.000000
145590901.000000,84009099.000000
145542127.000000,83936104.000000
145525000.000000,83850000.000000
145525000.000000,83400000.000000
145542127.000000,83313896.000000
145590901.000000,83240901.000000
145663896.000000,83192127.000000
145750000.000000,83175000.000000
146250000.000000,83175000.000000
146336104.000000,83192127.000000
146409099.000000,83240901.000000
146457873.000000,83313896.000000
146475000.000000,83400000.000000
146475000.000000,83850000.000000
146457873.000000,83936104.000000
146409099.000000,84009099.000000
146336104.000000,84057873.000000
146250000.000000,84075000.000000
Z" /> 
</g>
<g >
</g>
<g >
</g>
<g >
</g>
</g> 
</svg>
