<?xml version="1.0" standalone="no"?>
 <!DOCTYPE svg PUBLIC "-//W3C//DTD SVG 1.1//EN" 
 "http://www.w3.org/Graphics/SVG/1.1/DTD/svg11.dtd"> 
<svg
  xmlns:svg="http://www.w3.org/2000/svg"
  xmlns="http://www.w3.org/2000/svg"
  xmlns:xlink="http://www.w3.org/1999/xlink"
  version="1.1"
  width="29.700220cm" height="21.000720cm" viewBox="0 0 297002200 210007200">
<title>SVG Picture created as NCV68261-F_Silkscreen.svg date 2022/09/01 15:07:17 </title>
  <desc>Picture generated by PCBNEW </desc>
<g style="fill:#000000; fill-opacity:1.000000;stroke:#000000; stroke-opacity:1.000000;
stroke-linecap:round; stroke-linejoin:round;"
 transform="translate(0 0) scale(1 1)">
</g>
<g style="fill:#000000; fill-opacity:0.0; 
stroke:#000000; stroke-width:0.000000; stroke-opacity:1; 
stroke-linecap:round; stroke-linejoin:round;">
</g>
<g style="fill:#000000; fill-opacity:0.0; 
stroke:#000000; stroke-width:150000.000000; stroke-opacity:1; 
stroke-linecap:round; stroke-linejoin:round;">
<text x="140600000.000000" y="86900000.000000"
textLength="2150000.000000" font-size="1333333.000000" lengthAdjust="spacingAndGlyphs"
text-anchor="middle" opacity="0">U1</text>
<g class="stroked-text"><desc>U1</desc>
<path d="M139838095 85852380
L139838095 86661904
L139885714 86757142
L139933333 86804761
L140028571 86852380
L140219047 86852380
L140314285 86804761
L140361904 86757142
L140409523 86661904
L140409523 85852380
" />
<path d="M141409523 86852380
L140838095 86852380
" />
<path d="M141123809 86852380
L141123809 85852380
L141028571 85995238
L140933333 86090476
L140838095 86138095
" />
</g><text x="144200000.000000" y="86900000.000000"
textLength="2147381.000000" font-size="1333333.000000" lengthAdjust="spacingAndGlyphs"
text-anchor="middle" opacity="0">R2</text>
<g class="stroked-text"><desc>R2</desc>
<path d="M144033333 86852380
L143700000 86376190
" />
<path d="M143461904 86852380
L143461904 85852380
L143842857 85852380
L143938095 85900000
L143985714 85947619
L144033333 86042857
L144033333 86185714
L143985714 86280952
L143938095 86328571
L143842857 86376190
L143461904 86376190
" />
<path d="M144414285 85947619
L144461904 85900000
L144557142 85852380
L144795238 85852380
L144890476 85900000
L144938095 85947619
L144985714 86042857
L144985714 86138095
L144938095 86280952
L144366666 86852380
L144985714 86852380
" />
</g><text x="136200000.000000" y="85700000.000000"
textLength="2147381.000000" font-size="1333333.000000" lengthAdjust="spacingAndGlyphs"
text-anchor="middle" opacity="0">R1</text>
<g class="stroked-text"><desc>R1</desc>
<path d="M136033333 85652380
L135700000 85176190
" />
<path d="M135461904 85652380
L135461904 84652380
L135842857 84652380
L135938095 84700000
L135985714 84747619
L136033333 84842857
L136033333 84985714
L135985714 85080952
L135938095 85128571
L135842857 85176190
L135461904 85176190
" />
<path d="M136985714 85652380
L136414285 85652380
" />
<path d="M136700000 85652380
L136700000 84652380
L136604761 84795238
L136509523 84890476
L136414285 84938095
" />
</g><text x="149200000.000000" y="78700000.000000"
textLength="2195000.000000" font-size="1333333.000000" lengthAdjust="spacingAndGlyphs"
text-anchor="middle" opacity="0">Q2</text>
<g class="stroked-text"><desc>Q2</desc>
<path d="M149104761 78747619
L149009523 78700000
L148914285 78604761
L148771428 78461904
L148676190 78414285
L148580952 78414285
" />
<path d="M148628571 78652380
L148533333 78604761
L148438095 78509523
L148390476 78319047
L148390476 77985714
L148438095 77795238
L148533333 77700000
L148628571 77652380
L148819047 77652380
L148914285 77700000
L149009523 77795238
L149057142 77985714
L149057142 78319047
L149009523 78509523
L148914285 78604761
L148819047 78652380
L148628571 78652380
" />
<path d="M149438095 77747619
L149485714 77700000
L149580952 77652380
L149819047 77652380
L149914285 77700000
L149961904 77747619
L150009523 77842857
L150009523 77938095
L149961904 78080952
L149390476 78652380
L150009523 78652380
" />
</g><text x="132800000.000000" y="78700000.000000"
textLength="2195000.000000" font-size="1333333.000000" lengthAdjust="spacingAndGlyphs"
text-anchor="middle" opacity="0">Q1</text>
<g class="stroked-text"><desc>Q1</desc>
<path d="M132704761 78747619
L132609523 78700000
L132514285 78604761
L132371428 78461904
L132276190 78414285
L132180952 78414285
" />
<path d="M132228571 78652380
L132133333 78604761
L132038095 78509523
L131990476 78319047
L131990476 77985714
L132038095 77795238
L132133333 77700000
L132228571 77652380
L132419047 77652380
L132514285 77700000
L132609523 77795238
L132657142 77985714
L132657142 78319047
L132609523 78509523
L132514285 78604761
L132419047 78652380
L132228571 78652380
" />
<path d="M133609523 78652380
L133038095 78652380
" />
<path d="M133323809 78652380
L133323809 77652380
L133228571 77795238
L133133333 77890476
L133038095 77938095
" />
</g><text x="150000000.000000" y="86300000.000000"
textLength="2147381.000000" font-size="1333333.000000" lengthAdjust="spacingAndGlyphs"
text-anchor="middle" opacity="0">C3</text>
<g class="stroked-text"><desc>C3</desc>
<path d="M149833333 86157142
L149785714 86204761
L149642857 86252380
L149547619 86252380
L149404761 86204761
L149309523 86109523
L149261904 86014285
L149214285 85823809
L149214285 85680952
L149261904 85490476
L149309523 85395238
L149404761 85300000
L149547619 85252380
L149642857 85252380
L149785714 85300000
L149833333 85347619
" />
<path d="M150166666 85252380
L150785714 85252380
L150452380 85633333
L150595238 85633333
L150690476 85680952
L150738095 85728571
L150785714 85823809
L150785714 86061904
L150738095 86157142
L150690476 86204761
L150595238 86252380
L150309523 86252380
L150214285 86204761
L150166666 86157142
" />
</g><text x="146200000.000000" y="86900000.000000"
textLength="2147381.000000" font-size="1333333.000000" lengthAdjust="spacingAndGlyphs"
text-anchor="middle" opacity="0">C2</text>
<g class="stroked-text"><desc>C2</desc>
<path d="M146033333 86757142
L145985714 86804761
L145842857 86852380
L145747619 86852380
L145604761 86804761
L145509523 86709523
L145461904 86614285
L145414285 86423809
L145414285 86280952
L145461904 86090476
L145509523 85995238
L145604761 85900000
L145747619 85852380
L145842857 85852380
L145985714 85900000
L146033333 85947619
" />
<path d="M146414285 85947619
L146461904 85900000
L146557142 85852380
L146795238 85852380
L146890476 85900000
L146938095 85947619
L146985714 86042857
L146985714 86138095
L146938095 86280952
L146366666 86852380
L146985714 86852380
" />
</g><text x="132000000.000000" y="85900000.000000"
textLength="2147381.000000" font-size="1333333.000000" lengthAdjust="spacingAndGlyphs"
text-anchor="middle" opacity="0">C1</text>
<g class="stroked-text"><desc>C1</desc>
<path d="M131833333 85757142
L131785714 85804761
L131642857 85852380
L131547619 85852380
L131404761 85804761
L131309523 85709523
L131261904 85614285
L131214285 85423809
L131214285 85280952
L131261904 85090476
L131309523 84995238
L131404761 84900000
L131547619 84852380
L131642857 84852380
L131785714 84900000
L131833333 84947619
" />
<path d="M132785714 85852380
L132214285 85852380
" />
<path d="M132500000 85852380
L132500000 84852380
L132404761 84995238
L132309523 85090476
L132214285 85138095
" />
</g><path d="M139600000 85500000
L141600000 85500000
" />
<path d="M140600000 83300000
L141600000 83300000
" />
</g>
<g style="fill:#000000; fill-opacity:0.0; 
stroke:#000000; stroke-width:120000.000000; stroke-opacity:1; 
stroke-linecap:round; stroke-linejoin:round;">
<path d="M143877500 84162742
L143877500 84637258
" />
<path d="M144922500 84162742
L144922500 84637258
" />
<path d="M135962742 84322500
L136437258 84322500
" />
<path d="M135962742 83277500
L136437258 83277500
" />
<path d="M147545000 77430000
L141655000 77430000
" />
<path d="M148000000 82570000
L141655000 82570000
" />
<path d="M133910000 77430000
L140255000 77430000
" />
<path d="M134365000 82570000
L140255000 82570000
" />
<path d="M151360000 82088748
L151360000 83511252
" />
<path d="M148640000 82088748
L148640000 83511252
" />
<path d="M146510000 84540580
L146510000 84259420
" />
<path d="M145490000 84540580
L145490000 84259420
" />
<path d="M133360000 81688748
L133360000 83111252
" />
<path d="M130640000 81688748
L130640000 83111252
" />
<g >
</g>
<g >
</g>
<g >
</g>
<g >
</g>
<g >
</g>
<g >
</g>
<g >
</g>
<g >
</g>
<g >
</g>
<g >
</g>
<g >
</g>
</g> 
</svg>
