<?xml version="1.0" standalone="no"?>
 <!DOCTYPE svg PUBLIC "-//W3C//DTD SVG 1.1//EN" 
 "http://www.w3.org/Graphics/SVG/1.1/DTD/svg11.dtd"> 
<svg
  xmlns:svg="http://www.w3.org/2000/svg"
  xmlns="http://www.w3.org/2000/svg"
  xmlns:xlink="http://www.w3.org/1999/xlink"
  version="1.1"
  width="29.700220cm" height="21.000720cm" viewBox="0 0 297002200 210007200">
<title>SVG Picture created as NCV68261-F_Cu.svg date 2022/09/03 12:37:31 </title>
  <desc>Picture generated by PCBNEW </desc>
<g style="fill:#000000; fill-opacity:1.000000;stroke:#000000; stroke-opacity:1.000000;
stroke-linecap:round; stroke-linejoin:round;"
 transform="translate(0 0) scale(1 1)">
</g>
<g style="fill:#000000; fill-opacity:0.0; 
stroke:#000000; stroke-width:0.000000; stroke-opacity:1; 
stroke-linecap:round; stroke-linejoin:round;">
<g >
</g>
<g style="fill:#000000; fill-opacity:0.0; 
stroke:#000000; stroke-width:1.000000; stroke-opacity:1; 
stroke-linecap:round; stroke-linejoin:round;">
</g>
<g style="fill:#000000; fill-opacity:1.0; 
stroke:#000000; stroke-width:1.000000; stroke-opacity:1; 
stroke-linecap:round; stroke-linejoin:round;">
<path style="fill:#000000; fill-opacity:1.0; 
stroke:#000000; stroke-width:1.000000; stroke-opacity:1; 
stroke-linecap:round; stroke-linejoin:round;fill-rule:evenodd;"
d="M 139225000.000000,83925000.000000
139225000.000000,83575000.000000
139875000.000000,83575000.000000
139875000.000000,83925000.000000
Z" /> 
<path style="fill:#000000; fill-opacity:1.0; 
stroke:#000000; stroke-width:1.000000; stroke-opacity:1; 
stroke-linecap:round; stroke-linejoin:round;fill-rule:evenodd;"
d="M 139225000.000000,84575000.000000
139225000.000000,84225000.000000
139875000.000000,84225000.000000
139875000.000000,84575000.000000
Z" /> 
<path style="fill:#000000; fill-opacity:1.0; 
stroke:#000000; stroke-width:1.000000; stroke-opacity:1; 
stroke-linecap:round; stroke-linejoin:round;fill-rule:evenodd;"
d="M 139225000.000000,85225000.000000
139225000.000000,84875000.000000
139875000.000000,84875000.000000
139875000.000000,85225000.000000
Z" /> 
<path style="fill:#000000; fill-opacity:1.0; 
stroke:#000000; stroke-width:1.000000; stroke-opacity:1; 
stroke-linecap:round; stroke-linejoin:round;fill-rule:evenodd;"
d="M 141325000.000000,85225000.000000
141325000.000000,84875000.000000
141975000.000000,84875000.000000
141975000.000000,85225000.000000
Z" /> 
<path style="fill:#000000; fill-opacity:1.0; 
stroke:#000000; stroke-width:1.000000; stroke-opacity:1; 
stroke-linecap:round; stroke-linejoin:round;fill-rule:evenodd;"
d="M 141325000.000000,84575000.000000
141325000.000000,84225000.000000
141975000.000000,84225000.000000
141975000.000000,84575000.000000
Z" /> 
<path style="fill:#000000; fill-opacity:1.0; 
stroke:#000000; stroke-width:1.000000; stroke-opacity:1; 
stroke-linecap:round; stroke-linejoin:round;fill-rule:evenodd;"
d="M 141325000.000000,83925000.000000
141325000.000000,83575000.000000
141975000.000000,83575000.000000
141975000.000000,83925000.000000
Z" /> 
<path style="fill:#000000; fill-opacity:1.0; 
stroke:#000000; stroke-width:1.000000; stroke-opacity:1; 
stroke-linecap:round; stroke-linejoin:round;fill-rule:evenodd;"
d="M 140100000.000000,85200000.000000
140100000.000000,83600000.000000
141100000.000000,83600000.000000
141100000.000000,85200000.000000
Z" /> 
</g>
<g >
</g>
<g style="fill:#000000; fill-opacity:1.0; 
stroke:#000000; stroke-width:1.000000; stroke-opacity:1; 
stroke-linecap:round; stroke-linejoin:round;">
<path style="fill:#000000; fill-opacity:1.0; 
stroke:#000000; stroke-width:1.000000; stroke-opacity:1; 
stroke-linecap:round; stroke-linejoin:round;fill-rule:evenodd;"
d="M 133500000.000000,82550000.000000
133404329.000000,82530970.000000
133323223.000000,82476777.000000
133269030.000000,82395671.000000
133250000.000000,82300000.000000
133250000.000000,81650000.000000
133269030.000000,81554329.000000
133323223.000000,81473223.000000
133404329.000000,81419030.000000
133500000.000000,81400000.000000
135700000.000000,81400000.000000
135795671.000000,81419030.000000
135876777.000000,81473223.000000
135930970.000000,81554329.000000
135950000.000000,81650000.000000
135950000.000000,82300000.000000
135930970.000000,82395671.000000
135876777.000000,82476777.000000
135795671.000000,82530970.000000
135700000.000000,82550000.000000
Z" /> 
<path style="fill:#000000; fill-opacity:1.0; 
stroke:#000000; stroke-width:1.000000; stroke-opacity:1; 
stroke-linecap:round; stroke-linejoin:round;fill-rule:evenodd;"
d="M 133500000.000000,79600000.000000
133404329.000000,79580970.000000
133323223.000000,79526777.000000
133269030.000000,79445671.000000
133250000.000000,79350000.000000
133250000.000000,78700000.000000
133269030.000000,78604329.000000
133323223.000000,78523223.000000
133404329.000000,78469030.000000
133500000.000000,78450000.000000
135700000.000000,78450000.000000
135795671.000000,78469030.000000
135876777.000000,78523223.000000
135930970.000000,78604329.000000
135950000.000000,78700000.000000
135950000.000000,79350000.000000
135930970.000000,79445671.000000
135876777.000000,79526777.000000
135795671.000000,79580970.000000
135700000.000000,79600000.000000
Z" /> 
</g>
<g >
</g>
<g style="fill:#000000; fill-opacity:1.0; 
stroke:#000000; stroke-width:1.000000; stroke-opacity:1; 
stroke-linecap:round; stroke-linejoin:round;">
<path style="fill:#000000; fill-opacity:1.0; 
stroke:#000000; stroke-width:1.000000; stroke-opacity:1; 
stroke-linecap:round; stroke-linejoin:round;fill-rule:evenodd;"
d="M 135975000.000000,83725000.000000
135990224.000000,83648463.000000
136033579.000000,83583579.000000
136098463.000000,83540224.000000
136175000.000000,83525000.000000
136575000.000000,83525000.000000
136651537.000000,83540224.000000
136716421.000000,83583579.000000
136759776.000000,83648463.000000
136775000.000000,83725000.000000
136775000.000000,84275000.000000
136759776.000000,84351537.000000
136716421.000000,84416421.000000
136651537.000000,84459776.000000
136575000.000000,84475000.000000
136175000.000000,84475000.000000
136098463.000000,84459776.000000
136033579.000000,84416421.000000
135990224.000000,84351537.000000
135975000.000000,84275000.000000
Z" /> 
<path style="fill:#000000; fill-opacity:1.0; 
stroke:#000000; stroke-width:1.000000; stroke-opacity:1; 
stroke-linecap:round; stroke-linejoin:round;fill-rule:evenodd;"
d="M 137625000.000000,83725000.000000
137640224.000000,83648463.000000
137683579.000000,83583579.000000
137748463.000000,83540224.000000
137825000.000000,83525000.000000
138225000.000000,83525000.000000
138301537.000000,83540224.000000
138366421.000000,83583579.000000
138409776.000000,83648463.000000
138425000.000000,83725000.000000
138425000.000000,84275000.000000
138409776.000000,84351537.000000
138366421.000000,84416421.000000
138301537.000000,84459776.000000
138225000.000000,84475000.000000
137825000.000000,84475000.000000
137748463.000000,84459776.000000
137683579.000000,84416421.000000
137640224.000000,84351537.000000
137625000.000000,84275000.000000
Z" /> 
</g>
<g >
</g>
<g style="fill:#000000; fill-opacity:1.0; 
stroke:#000000; stroke-width:1.000000; stroke-opacity:1; 
stroke-linecap:round; stroke-linejoin:round;">
<path style="fill:#000000; fill-opacity:1.0; 
stroke:#000000; stroke-width:1.000000; stroke-opacity:1; 
stroke-linecap:round; stroke-linejoin:round;fill-rule:evenodd;"
d="M 144650000.000000,81565000.000000
144650000.000000,81985000.000000
143950000.000000,81985000.000000
143950000.000000,81565000.000000
Z" /> 
<path style="fill:#000000; fill-opacity:1.0; 
stroke:#000000; stroke-width:1.000000; stroke-opacity:1; 
stroke-linecap:round; stroke-linejoin:round;fill-rule:evenodd;"
d="M 144650000.000000,80915000.000000
144650000.000000,81335000.000000
143950000.000000,81335000.000000
143950000.000000,80915000.000000
Z" /> 
<path style="fill:#000000; fill-opacity:1.0; 
stroke:#000000; stroke-width:1.000000; stroke-opacity:1; 
stroke-linecap:round; stroke-linejoin:round;fill-rule:evenodd;"
d="M 144650000.000000,80265000.000000
144650000.000000,80685000.000000
143950000.000000,80685000.000000
143950000.000000,80265000.000000
Z" /> 
<path style="fill:#000000; fill-opacity:1.0; 
stroke:#000000; stroke-width:1.000000; stroke-opacity:1; 
stroke-linecap:round; stroke-linejoin:round;fill-rule:evenodd;"
d="M 144650000.000000,79615000.000000
144650000.000000,80035000.000000
143950000.000000,80035000.000000
143950000.000000,79615000.000000
Z" /> 
<path style="fill:#000000; fill-opacity:1.0; 
stroke:#000000; stroke-width:1.000000; stroke-opacity:1; 
stroke-linecap:round; stroke-linejoin:round;fill-rule:evenodd;"
d="M 140950000.000000,81565000.000000
141490000.000000,81565000.000000
141490000.000000,81335000.000000
140950000.000000,81335000.000000
140950000.000000,80915000.000000
141490000.000000,80915000.000000
141490000.000000,80685000.000000
140950000.000000,80685000.000000
140950000.000000,80265000.000000
141490000.000000,80265000.000000
141490000.000000,80035000.000000
140950000.000000,80035000.000000
140950000.000000,79615000.000000
143200000.000000,79615000.000000
143200000.000000,81985000.000000
140950000.000000,81985000.000000
Z" /> 
</g>
<g >
</g>
<g style="fill:#000000; fill-opacity:1.0; 
stroke:#000000; stroke-width:1.000000; stroke-opacity:1; 
stroke-linecap:round; stroke-linejoin:round;">
<path style="fill:#000000; fill-opacity:1.0; 
stroke:#000000; stroke-width:1.000000; stroke-opacity:1; 
stroke-linecap:round; stroke-linejoin:round;fill-rule:evenodd;"
d="M 145500000.000000,82550000.000000
145404329.000000,82530970.000000
145323223.000000,82476777.000000
145269030.000000,82395671.000000
145250000.000000,82300000.000000
145250000.000000,81650000.000000
145269030.000000,81554329.000000
145323223.000000,81473223.000000
145404329.000000,81419030.000000
145500000.000000,81400000.000000
147700000.000000,81400000.000000
147795671.000000,81419030.000000
147876777.000000,81473223.000000
147930970.000000,81554329.000000
147950000.000000,81650000.000000
147950000.000000,82300000.000000
147930970.000000,82395671.000000
147876777.000000,82476777.000000
147795671.000000,82530970.000000
147700000.000000,82550000.000000
Z" /> 
<path style="fill:#000000; fill-opacity:1.0; 
stroke:#000000; stroke-width:1.000000; stroke-opacity:1; 
stroke-linecap:round; stroke-linejoin:round;fill-rule:evenodd;"
d="M 145500000.000000,79600000.000000
145404329.000000,79580970.000000
145323223.000000,79526777.000000
145269030.000000,79445671.000000
145250000.000000,79350000.000000
145250000.000000,78700000.000000
145269030.000000,78604329.000000
145323223.000000,78523223.000000
145404329.000000,78469030.000000
145500000.000000,78450000.000000
147700000.000000,78450000.000000
147795671.000000,78469030.000000
147876777.000000,78523223.000000
147930970.000000,78604329.000000
147950000.000000,78700000.000000
147950000.000000,79350000.000000
147930970.000000,79445671.000000
147876777.000000,79526777.000000
147795671.000000,79580970.000000
147700000.000000,79600000.000000
Z" /> 
</g>
<g >
</g>
<g style="fill:#000000; fill-opacity:1.0; 
stroke:#000000; stroke-width:1.000000; stroke-opacity:1; 
stroke-linecap:round; stroke-linejoin:round;">
<path style="fill:#000000; fill-opacity:1.0; 
stroke:#000000; stroke-width:1.000000; stroke-opacity:1; 
stroke-linecap:round; stroke-linejoin:round;fill-rule:evenodd;"
d="M 144675000.000000,83175000.000000
144751537.000000,83190224.000000
144816421.000000,83233579.000000
144859776.000000,83298463.000000
144875000.000000,83375000.000000
144875000.000000,83775000.000000
144859776.000000,83851537.000000
144816421.000000,83916421.000000
144751537.000000,83959776.000000
144675000.000000,83975000.000000
144125000.000000,83975000.000000
144048463.000000,83959776.000000
143983579.000000,83916421.000000
143940224.000000,83851537.000000
143925000.000000,83775000.000000
143925000.000000,83375000.000000
143940224.000000,83298463.000000
143983579.000000,83233579.000000
144048463.000000,83190224.000000
144125000.000000,83175000.000000
Z" /> 
<path style="fill:#000000; fill-opacity:1.0; 
stroke:#000000; stroke-width:1.000000; stroke-opacity:1; 
stroke-linecap:round; stroke-linejoin:round;fill-rule:evenodd;"
d="M 144675000.000000,84825000.000000
144751537.000000,84840224.000000
144816421.000000,84883579.000000
144859776.000000,84948463.000000
144875000.000000,85025000.000000
144875000.000000,85425000.000000
144859776.000000,85501537.000000
144816421.000000,85566421.000000
144751537.000000,85609776.000000
144675000.000000,85625000.000000
144125000.000000,85625000.000000
144048463.000000,85609776.000000
143983579.000000,85566421.000000
143940224.000000,85501537.000000
143925000.000000,85425000.000000
143925000.000000,85025000.000000
143940224.000000,84948463.000000
143983579.000000,84883579.000000
144048463.000000,84840224.000000
144125000.000000,84825000.000000
Z" /> 
</g>
<g >
</g>
<g style="fill:#000000; fill-opacity:1.0; 
stroke:#000000; stroke-width:1.000000; stroke-opacity:1; 
stroke-linecap:round; stroke-linejoin:round;">
<path style="fill:#000000; fill-opacity:1.0; 
stroke:#000000; stroke-width:1.000000; stroke-opacity:1; 
stroke-linecap:round; stroke-linejoin:round;fill-rule:evenodd;"
d="M 136550000.000000,80035000.000000
136550000.000000,79615000.000000
137250000.000000,79615000.000000
137250000.000000,80035000.000000
Z" /> 
<path style="fill:#000000; fill-opacity:1.0; 
stroke:#000000; stroke-width:1.000000; stroke-opacity:1; 
stroke-linecap:round; stroke-linejoin:round;fill-rule:evenodd;"
d="M 136550000.000000,80685000.000000
136550000.000000,80265000.000000
137250000.000000,80265000.000000
137250000.000000,80685000.000000
Z" /> 
<path style="fill:#000000; fill-opacity:1.0; 
stroke:#000000; stroke-width:1.000000; stroke-opacity:1; 
stroke-linecap:round; stroke-linejoin:round;fill-rule:evenodd;"
d="M 136550000.000000,81335000.000000
136550000.000000,80915000.000000
137250000.000000,80915000.000000
137250000.000000,81335000.000000
Z" /> 
<path style="fill:#000000; fill-opacity:1.0; 
stroke:#000000; stroke-width:1.000000; stroke-opacity:1; 
stroke-linecap:round; stroke-linejoin:round;fill-rule:evenodd;"
d="M 136550000.000000,81985000.000000
136550000.000000,81565000.000000
137250000.000000,81565000.000000
137250000.000000,81985000.000000
Z" /> 
<path style="fill:#000000; fill-opacity:1.0; 
stroke:#000000; stroke-width:1.000000; stroke-opacity:1; 
stroke-linecap:round; stroke-linejoin:round;fill-rule:evenodd;"
d="M 140250000.000000,80035000.000000
139710000.000000,80035000.000000
139710000.000000,80265000.000000
140250000.000000,80265000.000000
140250000.000000,80685000.000000
139710000.000000,80685000.000000
139710000.000000,80915000.000000
140250000.000000,80915000.000000
140250000.000000,81335000.000000
139710000.000000,81335000.000000
139710000.000000,81565000.000000
140250000.000000,81565000.000000
140250000.000000,81985000.000000
138000000.000000,81985000.000000
138000000.000000,79615000.000000
140250000.000000,79615000.000000
Z" /> 
</g>
<g >
</g>
<g style="fill:#000000; fill-opacity:1.0; 
stroke:#000000; stroke-width:1.000000; stroke-opacity:1; 
stroke-linecap:round; stroke-linejoin:round;">
<path style="fill:#000000; fill-opacity:1.0; 
stroke:#000000; stroke-width:1.000000; stroke-opacity:1; 
stroke-linecap:round; stroke-linejoin:round;fill-rule:evenodd;"
d="M 145750000.000000,85625000.000000
145663896.000000,85607873.000000
145590901.000000,85559099.000000
145542127.000000,85486104.000000
145525000.000000,85400000.000000
145525000.000000,84950000.000000
145542127.000000,84863896.000000
145590901.000000,84790901.000000
145663896.000000,84742127.000000
145750000.000000,84725000.000000
146250000.000000,84725000.000000
146336104.000000,84742127.000000
146409099.000000,84790901.000000
146457873.000000,84863896.000000
146475000.000000,84950000.000000
146475000.000000,85400000.000000
146457873.000000,85486104.000000
146409099.000000,85559099.000000
146336104.000000,85607873.000000
146250000.000000,85625000.000000
Z" /> 
<path style="fill:#000000; fill-opacity:1.0; 
stroke:#000000; stroke-width:1.000000; stroke-opacity:1; 
stroke-linecap:round; stroke-linejoin:round;fill-rule:evenodd;"
d="M 145750000.000000,84075000.000000
145663896.000000,84057873.000000
145590901.000000,84009099.000000
145542127.000000,83936104.000000
145525000.000000,83850000.000000
145525000.000000,83400000.000000
145542127.000000,83313896.000000
145590901.000000,83240901.000000
145663896.000000,83192127.000000
145750000.000000,83175000.000000
146250000.000000,83175000.000000
146336104.000000,83192127.000000
146409099.000000,83240901.000000
146457873.000000,83313896.000000
146475000.000000,83400000.000000
146475000.000000,83850000.000000
146457873.000000,83936104.000000
146409099.000000,84009099.000000
146336104.000000,84057873.000000
146250000.000000,84075000.000000
Z" /> 
</g>
<g >
</g>
<g style="fill:#000000; fill-opacity:1.0; 
stroke:#000000; stroke-width:1.000000; stroke-opacity:1; 
stroke-linecap:round; stroke-linejoin:round;">
<circle cx="138800000.000000" cy="83000000.000000" r="300000.000000" /> 
</g>
<g style="fill:#000000; fill-opacity:1.0; 
stroke:#000000; stroke-width:21200.000000; stroke-opacity:1; 
stroke-linecap:round; stroke-linejoin:round;">
</g>
<g style="fill:#000000; fill-opacity:1.0; 
stroke:#000000; stroke-width:1.000000; stroke-opacity:1; 
stroke-linecap:round; stroke-linejoin:round;">
<circle cx="140800000.000000" cy="83000000.000000" r="300000.000000" /> 
</g>
<g style="fill:#000000; fill-opacity:1.0; 
stroke:#000000; stroke-width:21200.000000; stroke-opacity:1; 
stroke-linecap:round; stroke-linejoin:round;">
</g>
<g style="fill:#000000; fill-opacity:1.0; 
stroke:#000000; stroke-width:1.000000; stroke-opacity:1; 
stroke-linecap:round; stroke-linejoin:round;">
<circle cx="135000000.000000" cy="80100000.000000" r="300000.000000" /> 
</g>
<g style="fill:#000000; fill-opacity:1.0; 
stroke:#000000; stroke-width:21200.000000; stroke-opacity:1; 
stroke-linecap:round; stroke-linejoin:round;">
</g>
<g style="fill:#000000; fill-opacity:1.0; 
stroke:#000000; stroke-width:1.000000; stroke-opacity:1; 
stroke-linecap:round; stroke-linejoin:round;">
<circle cx="140600000.000000" cy="85800000.000000" r="300000.000000" /> 
</g>
<g style="fill:#000000; fill-opacity:1.0; 
stroke:#000000; stroke-width:21200.000000; stroke-opacity:1; 
stroke-linecap:round; stroke-linejoin:round;">
</g>
<g style="fill:#000000; fill-opacity:1.0; 
stroke:#000000; stroke-width:1.000000; stroke-opacity:1; 
stroke-linecap:round; stroke-linejoin:round;">
<circle cx="142600000.000000" cy="84400000.000000" r="300000.000000" /> 
</g>
<g style="fill:#000000; fill-opacity:1.0; 
stroke:#000000; stroke-width:21200.000000; stroke-opacity:1; 
stroke-linecap:round; stroke-linejoin:round;">
</g>
<g style="fill:#000000; fill-opacity:1.0; 
stroke:#000000; stroke-width:1.000000; stroke-opacity:1; 
stroke-linecap:round; stroke-linejoin:round;">
<circle cx="134300000.000000" cy="80100000.000000" r="300000.000000" /> 
</g>
<g style="fill:#000000; fill-opacity:1.0; 
stroke:#000000; stroke-width:21200.000000; stroke-opacity:1; 
stroke-linecap:round; stroke-linejoin:round;">
</g>
<g style="fill:#000000; fill-opacity:1.0; 
stroke:#000000; stroke-width:1.000000; stroke-opacity:1; 
stroke-linecap:round; stroke-linejoin:round;">
<circle cx="147000000.000000" cy="80000000.000000" r="300000.000000" /> 
</g>
<g style="fill:#000000; fill-opacity:1.0; 
stroke:#000000; stroke-width:21200.000000; stroke-opacity:1; 
stroke-linecap:round; stroke-linejoin:round;">
</g>
<g style="fill:#000000; fill-opacity:1.0; 
stroke:#000000; stroke-width:1.000000; stroke-opacity:1; 
stroke-linecap:round; stroke-linejoin:round;">
<circle cx="146300000.000000" cy="80000000.000000" r="300000.000000" /> 
</g>
<g style="fill:#000000; fill-opacity:1.0; 
stroke:#000000; stroke-width:21200.000000; stroke-opacity:1; 
stroke-linecap:round; stroke-linejoin:round;">
</g>
<g style="fill:#000000; fill-opacity:1.0; 
stroke:#000000; stroke-width:1.000000; stroke-opacity:1; 
stroke-linecap:round; stroke-linejoin:round;">
<circle cx="139600000.000000" cy="85800000.000000" r="300000.000000" /> 
</g>
<g style="fill:#000000; fill-opacity:1.0; 
stroke:#000000; stroke-width:21200.000000; stroke-opacity:1; 
stroke-linecap:round; stroke-linejoin:round;">
</g>
<g style="fill:#000000; fill-opacity:1.0; 
stroke:#000000; stroke-width:1.000000; stroke-opacity:1; 
stroke-linecap:round; stroke-linejoin:round;">
<circle cx="147000000.000000" cy="85000000.000000" r="300000.000000" /> 
</g>
<g style="fill:#000000; fill-opacity:1.0; 
stroke:#000000; stroke-width:21200.000000; stroke-opacity:1; 
stroke-linecap:round; stroke-linejoin:round;">
</g>
<g style="fill:#000000; fill-opacity:1.0; 
stroke:#000000; stroke-width:1.000000; stroke-opacity:1; 
stroke-linecap:round; stroke-linejoin:round;">
<circle cx="142600000.000000" cy="85200000.000000" r="300000.000000" /> 
</g>
<g style="fill:#000000; fill-opacity:1.0; 
stroke:#000000; stroke-width:21200.000000; stroke-opacity:1; 
stroke-linecap:round; stroke-linejoin:round;">
</g>
<g >
</g>
<g style="fill:#000000; fill-opacity:1.0; 
stroke:#000000; stroke-width:21200.000000; stroke-opacity:1; 
stroke-linecap:round; stroke-linejoin:round;">
</g>
<g style="fill:#000000; fill-opacity:1.0; 
stroke:#000000; stroke-width:250000.000000; stroke-opacity:1; 
stroke-linecap:round; stroke-linejoin:round;">
</g>
<g style="fill:#000000; fill-opacity:0.0; 
stroke:#000000; stroke-width:250000.000000; stroke-opacity:1; 
stroke-linecap:round; stroke-linejoin:round;">
<path d="M141650000 83245000
L141405000 83000000
" />
<path d="M137575000 81375000
L137325000 81125000
" />
<path d="M137325000 81125000
L136900000 81125000
" />
<path d="M138500000 83000000
L137575000 82075000
" />
<path d="M138800000 83000000
L138500000 83000000
" />
<path d="M137575000 82075000
L137575000 81375000
" />
<path d="M141650000 83750000
L141650000 83245000
" />
<path d="M141405000 83000000
L140800000 83000000
" />
<path d="M134600000 79700000
L134600000 79025000
" />
<path d="M135000000 80100000
L134600000 79700000
" />
<path d="M146600000 79600000
L147000000 80000000
" />
<path d="M134300000 80000000
L134600000 79700000
" />
<path d="M134300000 80100000
L134300000 80000000
" />
<path d="M146300000 80000000
L146600000 79700000
" />
<path d="M140600000 84400000
L140600000 85800000
" />
<path d="M146600000 79700000
L146600000 79025000
" />
<path d="M146600000 79025000
L146600000 79600000
" />
<path d="M146825000 85175000
L147000000 85000000
" />
<path d="M139550000 85050000
L139550000 85750000
" />
<path d="M146000000 85175000
L146825000 85175000
" />
<path d="M139550000 85750000
L139600000 85800000
" />
<path d="M141650000 84400000
L142600000 84400000
" />
<path d="M144400000 85225000
L146000000 83625000
" />
<path d="M146400000 81775000
L146600000 81975000
" />
<path d="M136900000 83475000
L136375000 84000000
" />
<path d="M136900000 81775000
L136900000 83475000
" />
<path d="M139550000 82460000
L140105000 81905000
" />
<path d="M139550000 83750000
L139550000 82460000
" />
<path d="M139225000 86425000
L138800000 86000000
" />
<path d="M142875000 86425000
L139225000 86425000
" />
<path d="M138800000 86000000
L138800000 84600000
" />
</g>
<g style="fill:#000000; fill-opacity:0.0; 
stroke:#000000; stroke-width:200000.000000; stroke-opacity:1; 
stroke-linecap:round; stroke-linejoin:round;">
<path d="M138025000 84000000
L138425000 84400000
" />
<path d="M138425000 84400000
L139550000 84400000
" />
</g>
<g style="fill:#000000; fill-opacity:0.0; 
stroke:#000000; stroke-width:250000.000000; stroke-opacity:1; 
stroke-linecap:round; stroke-linejoin:round;">
<path d="M138800000 84600000
L139000000 84400000
" />
<path d="M143400000 85900000
L142875000 86425000
" />
<path d="M143400000 84200000
L143400000 85900000
" />
<path d="M139000000 84400000
L139550000 84400000
" />
<path d="M143700000 79825000
L143625000 79900000
" />
<path d="M143625000 82800000
L144400000 83575000
" />
<path d="M144300000 79825000
L143700000 79825000
" />
<path d="M144400000 83575000
L144025000 83575000
" />
<path d="M144025000 83575000
L143400000 84200000
" />
<path d="M143625000 79900000
L143625000 82800000
" />
<path d="M142450000 85050000
L142600000 85200000
" />
<path d="M141650000 85050000
L142450000 85050000
" />
</g>
<g >
</g>
<g style="fill:#000000; fill-opacity:0.0; 
stroke:#000000; stroke-width:250000.000000; stroke-opacity:1; 
stroke-linecap:round; stroke-linejoin:round;">
<g >
</g>
<g style="fill:#000000; fill-opacity:1.0; 
stroke:#000000; stroke-width:1.000000; stroke-opacity:1; 
stroke-linecap:round; stroke-linejoin:round;">
<path style="fill:#000000; fill-opacity:1.0; 
stroke:#000000; stroke-width:1.000000; stroke-opacity:1; 
stroke-linecap:round; stroke-linejoin:round;fill-rule:evenodd;"
d="M 143342121.000000,78920002.000000
143388614.000000,78973658.000000
143400000.000000,79026000.000000
143400000.000000,79194557.000000
143379998.000000,79262678.000000
143338142.000000,79303009.000000
143308638.000000,79320458.000000
143294314.000000,79334782.000000
143279287.000000,79347617.000000
143262893.000000,79359528.000000
143237435.000000,79390301.000000
143222783.000000,79404953.000000
143217982.000000,79408000.000000
143171355.000000,79457653.000000
143168600.000000,79460495.000000
143148865.000000,79480230.000000
143146385.000000,79483427.000000
143138682.000000,79492447.000000
143108414.000000,79524679.000000
143104595.000000,79531625.000000
143104593.000000,79531628.000000
143098652.000000,79542434.000000
143087801.000000,79558953.000000
143075386.000000,79574959.000000
143072241.000000,79582228.000000
143072238.000000,79582232.000000
143057826.000000,79615537.000000
143052609.000000,79626187.000000
143031305.000000,79664940.000000
143029334.000000,79672615.000000
143029334.000000,79672616.000000
143026267.000000,79684562.000000
143019863.000000,79703266.000000
143011819.000000,79721855.000000
143010580.000000,79729678.000000
143010577.000000,79729688.000000
143004901.000000,79765524.000000
143002495.000000,79777144.000000
142991500.000000,79819970.000000
142991500.000000,79840224.000000
142989949.000000,79859934.000000
142986780.000000,79879943.000000
142987526.000000,79887835.000000
142990941.000000,79923961.000000
142991500.000000,79935819.000000
142991500.000000,82474000.000000
142971498.000000,82542121.000000
142917842.000000,82588614.000000
142865500.000000,82600000.000000
141954360.000000,82600000.000000
141886239.000000,82579998.000000
141868107.000000,82565850.000000
141847349.000000,82546357.000000
141844507.000000,82543602.000000
141824770.000000,82523865.000000
141821573.000000,82521385.000000
141812551.000000,82513680.000000
141798624.000000,82500602.000000
141780321.000000,82483414.000000
141773375.000000,82479595.000000
141773372.000000,82479593.000000
141762566.000000,82473652.000000
141746047.000000,82462801.000000
141745583.000000,82462441.000000
141730041.000000,82450386.000000
141722772.000000,82447241.000000
141722768.000000,82447238.000000
141689463.000000,82432826.000000
141678813.000000,82427609.000000
141640060.000000,82406305.000000
141620437.000000,82401267.000000
141601734.000000,82394863.000000
141590420.000000,82389967.000000
141590419.000000,82389967.000000
141583145.000000,82386819.000000
141575322.000000,82385580.000000
141575312.000000,82385577.000000
141539476.000000,82379901.000000
141527856.000000,82377495.000000
141492711.000000,82368472.000000
141492710.000000,82368472.000000
141485030.000000,82366500.000000
141464776.000000,82366500.000000
141445065.000000,82364949.000000
141432886.000000,82363020.000000
141425057.000000,82361780.000000
141417165.000000,82362526.000000
141381039.000000,82365941.000000
141369181.000000,82366500.000000
141347338.000000,82366500.000000
141279824.000000,82346885.000000
141246583.000000,82325790.000000
141156666.000000,82268727.000000
141127463.000000,82258328.000000
140992425.000000,82210243.000000
140992420.000000,82210242.000000
140985790.000000,82207881.000000
140978802.000000,82207048.000000
140978799.000000,82207047.000000
140855698.000000,82192368.000000
140805680.000000,82186404.000000
140798677.000000,82187140.000000
140798676.000000,82187140.000000
140632288.000000,82204628.000000
140632286.000000,82204629.000000
140625288.000000,82205364.000000
140453579.000000,82263818.000000
140447575.000000,82267512.000000
140305095.000000,82355166.000000
140305092.000000,82355168.000000
140299088.000000,82358862.000000
140294053.000000,82363793.000000
140294050.000000,82363795.000000
140174526.000000,82480842.000000
140169493.000000,82485771.000000
140134050.000000,82540769.000000
140133092.000000,82542255.000000
140079377.000000,82588680.000000
140027180.000000,82600000.000000
139573315.000000,82600000.000000
139505194.000000,82579998.000000
139466461.000000,82540769.000000
139441362.000000,82500602.000000
139441359.000000,82500599.000000
139437626.000000,82494624.000000
139347964.000000,82404334.000000
139314778.000000,82370915.000000
139314774.000000,82370912.000000
139309815.000000,82365918.000000
139298697.000000,82358862.000000
139250538.000000,82328300.000000
139156666.000000,82268727.000000
139127463.000000,82258328.000000
138992425.000000,82210243.000000
138992420.000000,82210242.000000
138985790.000000,82207881.000000
138978802.000000,82207048.000000
138978799.000000,82207047.000000
138855698.000000,82192368.000000
138805680.000000,82186404.000000
138798677.000000,82187140.000000
138798675.000000,82187140.000000
138663321.000000,82201366.000000
138593483.000000,82188594.000000
138561056.000000,82165151.000000
138245405.000000,81849500.000000
138211379.000000,81787188.000000
138208500.000000,81760405.000000
138208500.000000,81453763.000000
138209027.000000,81442579.000000
138210701.000000,81435091.000000
138208562.000000,81367032.000000
138208500.000000,81363075.000000
138208500.000000,81335144.000000
138207994.000000,81331138.000000
138207061.000000,81319292.000000
138205922.000000,81283037.000000
138205673.000000,81275110.000000
138200022.000000,81255658.000000
138196014.000000,81236306.000000
138194468.000000,81224068.000000
138194467.000000,81224066.000000
138193474.000000,81216203.000000
138177194.000000,81175086.000000
138173359.000000,81163885.000000
138161018.000000,81121406.000000
138156985.000000,81114587.000000
138156983.000000,81114582.000000
138150707.000000,81103971.000000
138142010.000000,81086221.000000
138134552.000000,81067383.000000
138108571.000000,81031623.000000
138102053.000000,81021701.000000
138083578.000000,80990460.000000
138083574.000000,80990455.000000
138079542.000000,80983637.000000
138065218.000000,80969313.000000
138052376.000000,80954278.000000
138040472.000000,80937893.000000
138006406.000000,80909711.000000
137997627.000000,80901722.000000
137828652.000000,80732747.000000
137821112.000000,80724461.000000
137817000.000000,80717982.000000
137798248.000000,80700373.000000
137762282.000000,80639160.000000
137758500.000000,80608522.000000
137758500.000000,80216866.000000
137752714.000000,80163604.000000
137752714.000000,80136396.000000
137758500.000000,80083134.000000
137758500.000000,79566866.000000
137751745.000000,79504684.000000
137700615.000000,79368295.000000
137694045.000000,79359528.000000
137625174.000000,79267634.000000
137600326.000000,79201127.000000
137600000.000000,79192069.000000
137600000.000000,79026000.000000
137620002.000000,78957879.000000
137673658.000000,78911386.000000
137726000.000000,78900000.000000
143274000.000000,78900000.000000
Z" /> 
</g>
</g>
<g style="fill:#000000; fill-opacity:1.0; 
stroke:#000000; stroke-width:1.000000; stroke-opacity:1; 
stroke-linecap:round; stroke-linejoin:round;">
<g >
<path style="fill:#000000; fill-opacity:1.0; 
stroke:#000000; stroke-width:1.000000; stroke-opacity:1; 
stroke-linecap:round; stroke-linejoin:round;fill-rule:evenodd;"
d="M 137342121.000000,78220002.000000
137388614.000000,78273658.000000
137400000.000000,78326000.000000
137400000.000000,80930500.000000
137379998.000000,80998621.000000
137326342.000000,81045114.000000
137274000.000000,81056500.000000
136501866.000000,81056500.000000
136439684.000000,81063255.000000
136303295.000000,81114385.000000
136186739.000000,81201739.000000
136099385.000000,81318295.000000
136048255.000000,81454684.000000
136041500.000000,81516866.000000
136041500.000000,82033134.000000
136048255.000000,82095316.000000
136099385.000000,82231705.000000
136186739.000000,82348261.000000
136216067.000000,82370241.000000
136258580.000000,82427100.000000
136266500.000000,82471066.000000
136266500.000000,82674000.000000
136246498.000000,82742121.000000
136192842.000000,82788614.000000
136140500.000000,82800000.000000
133126000.000000,82800000.000000
133057879.000000,82779998.000000
133011386.000000,82726342.000000
133000000.000000,82674000.000000
133000000.000000,80156301.000000
133020002.000000,80088180.000000
133073658.000000,80041687.000000
133143932.000000,80031583.000000
133175376.000000,80040952.000000
133177262.000000,80042115.000000
133184207.000000,80044418.000000
133184210.000000,80044420.000000
133338611.000000,80095632.000000
133338613.000000,80095632.000000
133345139.000000,80097797.000000
133351975.000000,80098497.000000
133351978.000000,80098498.000000
133386304.000000,80102015.000000
133452031.000000,80128857.000000
133492812.000000,80186972.000000
133498859.000000,80215062.000000
133504163.000000,80269160.000000
133506387.000000,80275845.000000
133506387.000000,80275846.000000
133532626.000000,80354721.000000
133561418.000000,80441273.000000
133565065.000000,80447295.000000
133565066.000000,80447297.000000
133575978.000000,80465314.000000
133655380.000000,80596424.000000
133781382.000000,80726902.000000
133933159.000000,80826222.000000
133939763.000000,80828678.000000
133939765.000000,80828679.000000
134096558.000000,80886990.000000
134096560.000000,80886990.000000
134103168.000000,80889448.000000
134186995.000000,80900633.000000
134275980.000000,80912507.000000
134275984.000000,80912507.000000
134282961.000000,80913438.000000
134289972.000000,80912800.000000
134289976.000000,80912800.000000
134432459.000000,80899832.000000
134463600.000000,80896998.000000
134470300.000000,80894821.000000
134470305.000000,80894820.000000
134613934.000000,80848152.000000
134684902.000000,80846125.000000
134696789.000000,80849887.000000
134796563.000000,80886992.000000
134796566.000000,80886993.000000
134803168.000000,80889448.000000
134810149.000000,80890379.000000
134810151.000000,80890380.000000
134975980.000000,80912507.000000
134975984.000000,80912507.000000
134982961.000000,80913438.000000
134989972.000000,80912800.000000
134989976.000000,80912800.000000
135132459.000000,80899832.000000
135163600.000000,80896998.000000
135170302.000000,80894820.000000
135170304.000000,80894820.000000
135329409.000000,80843124.000000
135329412.000000,80843123.000000
135336108.000000,80840947.000000
135491912.000000,80748069.000000
135623266.000000,80622982.000000
135723643.000000,80471902.000000
135788055.000000,80302338.000000
135804043.000000,80188579.000000
135833331.000000,80123905.000000
135888940.000000,80086592.000000
136023946.000000,80041550.000000
136174348.000000,79948478.000000
136299305.000000,79823303.000000
136392115.000000,79672738.000000
136447797.000000,79504861.000000
136458500.000000,79400400.000000
136458500.000000,78649600.000000
136447526.000000,78543834.000000
136391550.000000,78376054.000000
136391677.000000,78376012.000000
136381420.000000,78309279.000000
136410286.000000,78244415.000000
136469637.000000,78205454.000000
136506306.000000,78200000.000000
137274000.000000,78200000.000000
Z" /> 
</g>
</g>
<g style="fill:#000000; fill-opacity:1.0; 
stroke:#000000; stroke-width:1.000000; stroke-opacity:1; 
stroke-linecap:round; stroke-linejoin:round;">
<g >
<path style="fill:#000000; fill-opacity:1.0; 
stroke:#000000; stroke-width:1.000000; stroke-opacity:1; 
stroke-linecap:round; stroke-linejoin:round;fill-rule:evenodd;"
d="M 145280957.000000,80280957.000000
145300000.000000,80300000.000000
145465425.000000,80300000.000000
145533546.000000,80320002.000000
145573201.000000,80360729.000000
145581031.000000,80373658.000000
145650743.000000,80488767.000000
145655380.000000,80496424.000000
145660269.000000,80501487.000000
145660270.000000,80501488.000000
145700485.000000,80543131.000000
145781382.000000,80626902.000000
145933159.000000,80726222.000000
145939763.000000,80728678.000000
145939765.000000,80728679.000000
146096558.000000,80786990.000000
146096560.000000,80786990.000000
146103168.000000,80789448.000000
146186995.000000,80800633.000000
146275980.000000,80812507.000000
146275984.000000,80812507.000000
146282961.000000,80813438.000000
146289972.000000,80812800.000000
146289976.000000,80812800.000000
146432459.000000,80799832.000000
146463600.000000,80796998.000000
146470300.000000,80794821.000000
146470305.000000,80794820.000000
146613934.000000,80748152.000000
146684902.000000,80746125.000000
146696789.000000,80749887.000000
146796563.000000,80786992.000000
146796566.000000,80786993.000000
146803168.000000,80789448.000000
146810149.000000,80790379.000000
146810151.000000,80790380.000000
146975980.000000,80812507.000000
146975984.000000,80812507.000000
146982961.000000,80813438.000000
146989972.000000,80812800.000000
146989976.000000,80812800.000000
147132459.000000,80799832.000000
147163600.000000,80796998.000000
147170302.000000,80794820.000000
147170304.000000,80794820.000000
147329409.000000,80743124.000000
147329412.000000,80743123.000000
147336108.000000,80740947.000000
147491912.000000,80648069.000000
147623266.000000,80522982.000000
147723643.000000,80371902.000000
147725246.000000,80367681.000000
147773483.000000,80316962.000000
147836623.000000,80300000.000000
148074000.000000,80300000.000000
148142121.000000,80320002.000000
148188614.000000,80373658.000000
148200000.000000,80426000.000000
148200000.000000,82674000.000000
148179998.000000,82742121.000000
148126342.000000,82788614.000000
148074000.000000,82800000.000000
146710243.000000,82800000.000000
146644127.000000,82781260.000000
146643941.000000,82781145.000000
146601618.000000,82755057.000000
146568331.000000,82734538.000000
146568329.000000,82734537.000000
146562101.000000,82730698.000000
146399757.000000,82676851.000000
146392920.000000,82676151.000000
146392918.000000,82676150.000000
146351599.000000,82671917.000000
146298732.000000,82666500.000000
145701268.000000,82666500.000000
145698022.000000,82666837.000000
145698018.000000,82666837.000000
145663917.000000,82670375.000000
145598981.000000,82677113.000000
145436732.000000,82731244.000000
145430508.000000,82735096.000000
145430507.000000,82735096.000000
145356091.000000,82781145.000000
145289789.000000,82800000.000000
145128498.000000,82800000.000000
145063228.000000,82781776.000000
144968699.000000,82724528.000000
144961452.000000,82722257.000000
144961450.000000,82722256.000000
144895164.000000,82701483.000000
144805062.000000,82673247.000000
144731635.000000,82666500.000000
144713527.000000,82666500.000000
144439595.000000,82666501.000000
144371476.000000,82646499.000000
144350500.000000,82629596.000000
144295404.000000,82574499.000000
144261379.000000,82512186.000000
144258500.000000,82485404.000000
144258500.000000,80669500.000000
144278502.000000,80601379.000000
144332158.000000,80554886.000000
144384500.000000,80543500.000000
144698134.000000,80543500.000000
144760316.000000,80536745.000000
144896705.000000,80485615.000000
145013261.000000,80398261.000000
145018643.000000,80391080.000000
145091036.000000,80294487.000000
145147896.000000,80251972.000000
145218714.000000,80246947.000000
Z" /> 
</g>
</g>
</g> 
</svg>
