<?xml version="1.0" standalone="no"?>
 <!DOCTYPE svg PUBLIC "-//W3C//DTD SVG 1.1//EN" 
 "http://www.w3.org/Graphics/SVG/1.1/DTD/svg11.dtd"> 
<svg
  xmlns:svg="http://www.w3.org/2000/svg"
  xmlns="http://www.w3.org/2000/svg"
  xmlns:xlink="http://www.w3.org/1999/xlink"
  version="1.1"
  width="29.700220cm" height="21.000720cm" viewBox="0 0 297002200 210007200">
<title>SVG Picture created as NCV68261-B_Cu.svg date 2022/09/01 15:07:17 </title>
  <desc>Picture generated by PCBNEW </desc>
<g style="fill:#000000; fill-opacity:1.000000;stroke:#000000; stroke-opacity:1.000000;
stroke-linecap:round; stroke-linejoin:round;"
 transform="translate(0 0) scale(1 1)">
</g>
<g style="fill:#000000; fill-opacity:0.0; 
stroke:#000000; stroke-width:0.000000; stroke-opacity:1; 
stroke-linecap:round; stroke-linejoin:round;">
<g >
</g>
<g >
</g>
<g >
</g>
<g >
</g>
<g >
</g>
<g >
</g>
<g >
</g>
<g >
</g>
<g >
</g>
<g style="fill:#000000; fill-opacity:0.0; 
stroke:#000000; stroke-width:0.000000; stroke-opacity:1; 
stroke-linecap:round; stroke-linejoin:round;">
</g>
<g style="fill:#000000; fill-opacity:1.0; 
stroke:#000000; stroke-width:1.000000; stroke-opacity:1; 
stroke-linecap:round; stroke-linejoin:round;">
<circle cx="132500000.000000" cy="82500000.000000" r="300000.000000" /> 
</g>
<g style="fill:#000000; fill-opacity:1.0; 
stroke:#000000; stroke-width:21200.000000; stroke-opacity:1; 
stroke-linecap:round; stroke-linejoin:round;">
</g>
<g style="fill:#000000; fill-opacity:1.0; 
stroke:#000000; stroke-width:1.000000; stroke-opacity:1; 
stroke-linecap:round; stroke-linejoin:round;">
<circle cx="131500000.000000" cy="82500000.000000" r="300000.000000" /> 
</g>
<g style="fill:#000000; fill-opacity:1.0; 
stroke:#000000; stroke-width:21200.000000; stroke-opacity:1; 
stroke-linecap:round; stroke-linejoin:round;">
</g>
<g style="fill:#000000; fill-opacity:1.0; 
stroke:#000000; stroke-width:1.000000; stroke-opacity:1; 
stroke-linecap:round; stroke-linejoin:round;">
<circle cx="150500000.000000" cy="83000000.000000" r="300000.000000" /> 
</g>
<g style="fill:#000000; fill-opacity:1.0; 
stroke:#000000; stroke-width:21200.000000; stroke-opacity:1; 
stroke-linecap:round; stroke-linejoin:round;">
</g>
<g style="fill:#000000; fill-opacity:1.0; 
stroke:#000000; stroke-width:1.000000; stroke-opacity:1; 
stroke-linecap:round; stroke-linejoin:round;">
<circle cx="149500000.000000" cy="83000000.000000" r="300000.000000" /> 
</g>
<g style="fill:#000000; fill-opacity:1.0; 
stroke:#000000; stroke-width:21200.000000; stroke-opacity:1; 
stroke-linecap:round; stroke-linejoin:round;">
</g>
<g style="fill:#000000; fill-opacity:1.0; 
stroke:#000000; stroke-width:1.000000; stroke-opacity:1; 
stroke-linecap:round; stroke-linejoin:round;">
<circle cx="147000000.000000" cy="85000000.000000" r="300000.000000" /> 
</g>
<g style="fill:#000000; fill-opacity:1.0; 
stroke:#000000; stroke-width:21200.000000; stroke-opacity:1; 
stroke-linecap:round; stroke-linejoin:round;">
</g>
<g style="fill:#000000; fill-opacity:1.0; 
stroke:#000000; stroke-width:1.000000; stroke-opacity:1; 
stroke-linecap:round; stroke-linejoin:round;">
<circle cx="142600000.000000" cy="85200000.000000" r="300000.000000" /> 
</g>
<g style="fill:#000000; fill-opacity:1.0; 
stroke:#000000; stroke-width:21200.000000; stroke-opacity:1; 
stroke-linecap:round; stroke-linejoin:round;">
</g>
<g style="fill:#000000; fill-opacity:1.0; 
stroke:#000000; stroke-width:1.000000; stroke-opacity:1; 
stroke-linecap:round; stroke-linejoin:round;">
<circle cx="138800000.000000" cy="83000000.000000" r="300000.000000" /> 
</g>
<g style="fill:#000000; fill-opacity:1.0; 
stroke:#000000; stroke-width:21200.000000; stroke-opacity:1; 
stroke-linecap:round; stroke-linejoin:round;">
</g>
<g style="fill:#000000; fill-opacity:1.0; 
stroke:#000000; stroke-width:1.000000; stroke-opacity:1; 
stroke-linecap:round; stroke-linejoin:round;">
<circle cx="140800000.000000" cy="83000000.000000" r="300000.000000" /> 
</g>
<g style="fill:#000000; fill-opacity:1.0; 
stroke:#000000; stroke-width:21200.000000; stroke-opacity:1; 
stroke-linecap:round; stroke-linejoin:round;">
</g>
<g style="fill:#000000; fill-opacity:1.0; 
stroke:#000000; stroke-width:1.000000; stroke-opacity:1; 
stroke-linecap:round; stroke-linejoin:round;">
<circle cx="142600000.000000" cy="84400000.000000" r="300000.000000" /> 
</g>
<g style="fill:#000000; fill-opacity:1.0; 
stroke:#000000; stroke-width:21200.000000; stroke-opacity:1; 
stroke-linecap:round; stroke-linejoin:round;">
</g>
<g style="fill:#000000; fill-opacity:1.0; 
stroke:#000000; stroke-width:1.000000; stroke-opacity:1; 
stroke-linecap:round; stroke-linejoin:round;">
<circle cx="139600000.000000" cy="85800000.000000" r="300000.000000" /> 
</g>
<g style="fill:#000000; fill-opacity:1.0; 
stroke:#000000; stroke-width:21200.000000; stroke-opacity:1; 
stroke-linecap:round; stroke-linejoin:round;">
</g>
<g >
</g>
<g style="fill:#000000; fill-opacity:1.0; 
stroke:#000000; stroke-width:21200.000000; stroke-opacity:1; 
stroke-linecap:round; stroke-linejoin:round;">
</g>
<g style="fill:#000000; fill-opacity:1.0; 
stroke:#000000; stroke-width:250000.000000; stroke-opacity:1; 
stroke-linecap:round; stroke-linejoin:round;">
</g>
<g style="fill:#000000; fill-opacity:0.0; 
stroke:#000000; stroke-width:250000.000000; stroke-opacity:1; 
stroke-linecap:round; stroke-linejoin:round;">
<path d="M140800000 83000000
L138800000 83000000
" />
</g>
<g >
</g>
<g style="fill:#000000; fill-opacity:0.0; 
stroke:#000000; stroke-width:250000.000000; stroke-opacity:1; 
stroke-linecap:round; stroke-linejoin:round;">
<g >
</g>
<g style="fill:#000000; fill-opacity:1.0; 
stroke:#000000; stroke-width:1.000000; stroke-opacity:1; 
stroke-linecap:round; stroke-linejoin:round;">
<path style="fill:#000000; fill-opacity:1.0; 
stroke:#000000; stroke-width:1.000000; stroke-opacity:1; 
stroke-linecap:round; stroke-linejoin:round;fill-rule:evenodd;"
d="M 151442121.000000,77020002.000000
151488614.000000,77073658.000000
151500000.000000,77126000.000000
151500000.000000,86874000.000000
151479998.000000,86942121.000000
151426342.000000,86988614.000000
151374000.000000,87000000.000000
130626000.000000,87000000.000000
130557879.000000,86979998.000000
130511386.000000,86926342.000000
130500000.000000,86874000.000000
130500000.000000,85188640.000000
141786463.000000,85188640.000000
141804163.000000,85369160.000000
141861418.000000,85541273.000000
141865065.000000,85547295.000000
141865066.000000,85547297.000000
141875978.000000,85565314.000000
141955380.000000,85696424.000000
142081382.000000,85826902.000000
142233159.000000,85926222.000000
142239763.000000,85928678.000000
142239765.000000,85928679.000000
142396558.000000,85986990.000000
142396560.000000,85986990.000000
142403168.000000,85989448.000000
142486995.000000,86000633.000000
142575980.000000,86012507.000000
142575984.000000,86012507.000000
142582961.000000,86013438.000000
142589972.000000,86012800.000000
142589976.000000,86012800.000000
142732459.000000,85999832.000000
142763600.000000,85996998.000000
142770302.000000,85994820.000000
142770304.000000,85994820.000000
142929409.000000,85943124.000000
142929412.000000,85943123.000000
142936108.000000,85940947.000000
143091912.000000,85848069.000000
143223266.000000,85722982.000000
143323643.000000,85571902.000000
143388055.000000,85402338.000000
143389035.000000,85395366.000000
143412748.000000,85226639.000000
143412748.000000,85226636.000000
143413299.000000,85222717.000000
143413616.000000,85200000.000000
143393397.000000,85019745.000000
143391080.000000,85013091.000000
143336064.000000,84855106.000000
143336062.000000,84855103.000000
143333745.000000,84848448.000000
143237626.000000,84694624.000000
143223941.000000,84680843.000000
143114778.000000,84570915.000000
143114774.000000,84570912.000000
143109815.000000,84565918.000000
143098697.000000,84558862.000000
143050538.000000,84528300.000000
142956666.000000,84468727.000000
142927463.000000,84458328.000000
142792425.000000,84410243.000000
142792420.000000,84410242.000000
142785790.000000,84407881.000000
142778802.000000,84407048.000000
142778799.000000,84407047.000000
142655698.000000,84392368.000000
142605680.000000,84386404.000000
142598677.000000,84387140.000000
142598676.000000,84387140.000000
142432288.000000,84404628.000000
142432286.000000,84404629.000000
142425288.000000,84405364.000000
142253579.000000,84463818.000000
142247575.000000,84467512.000000
142105095.000000,84555166.000000
142105092.000000,84555168.000000
142099088.000000,84558862.000000
142094053.000000,84563793.000000
142094050.000000,84563795.000000
141974525.000000,84680843.000000
141969493.000000,84685771.000000
141871235.000000,84838238.000000
141868826.000000,84844858.000000
141868824.000000,84844861.000000
141811606.000000,85002066.000000
141809197.000000,85008685.000000
141786463.000000,85188640.000000
130500000.000000,85188640.000000
130500000.000000,82988640.000000
137986463.000000,82988640.000000
138004163.000000,83169160.000000
138061418.000000,83341273.000000
138065065.000000,83347295.000000
138065066.000000,83347297.000000
138075978.000000,83365314.000000
138155380.000000,83496424.000000
138281382.000000,83626902.000000
138433159.000000,83726222.000000
138439763.000000,83728678.000000
138439765.000000,83728679.000000
138596558.000000,83786990.000000
138596560.000000,83786990.000000
138603168.000000,83789448.000000
138686995.000000,83800633.000000
138775980.000000,83812507.000000
138775984.000000,83812507.000000
138782961.000000,83813438.000000
138789972.000000,83812800.000000
138789976.000000,83812800.000000
138932459.000000,83799832.000000
138963600.000000,83796998.000000
138970302.000000,83794820.000000
138970304.000000,83794820.000000
139129409.000000,83743124.000000
139129412.000000,83743123.000000
139136108.000000,83740947.000000
139286540.000000,83651271.000000
139351058.000000,83633500.000000
140253903.000000,83633500.000000
140322896.000000,83654068.000000
140433159.000000,83726222.000000
140439763.000000,83728678.000000
140439765.000000,83728679.000000
140596558.000000,83786990.000000
140596560.000000,83786990.000000
140603168.000000,83789448.000000
140686995.000000,83800633.000000
140775980.000000,83812507.000000
140775984.000000,83812507.000000
140782961.000000,83813438.000000
140789972.000000,83812800.000000
140789976.000000,83812800.000000
140932459.000000,83799832.000000
140963600.000000,83796998.000000
140970302.000000,83794820.000000
140970304.000000,83794820.000000
141129409.000000,83743124.000000
141129412.000000,83743123.000000
141136108.000000,83740947.000000
141291912.000000,83648069.000000
141423266.000000,83522982.000000
141523643.000000,83371902.000000
141588055.000000,83202338.000000
141589035.000000,83195366.000000
141612748.000000,83026639.000000
141612748.000000,83026636.000000
141613299.000000,83022717.000000
141613616.000000,83000000.000000
141593397.000000,82819745.000000
141591080.000000,82813091.000000
141536064.000000,82655106.000000
141536062.000000,82655103.000000
141533745.000000,82648448.000000
141437626.000000,82494624.000000
141423941.000000,82480843.000000
141314778.000000,82370915.000000
141314774.000000,82370912.000000
141309815.000000,82365918.000000
141298697.000000,82358862.000000
141250538.000000,82328300.000000
141156666.000000,82268727.000000
141127463.000000,82258328.000000
140992425.000000,82210243.000000
140992420.000000,82210242.000000
140985790.000000,82207881.000000
140978802.000000,82207048.000000
140978799.000000,82207047.000000
140855698.000000,82192368.000000
140805680.000000,82186404.000000
140798677.000000,82187140.000000
140798676.000000,82187140.000000
140632288.000000,82204628.000000
140632286.000000,82204629.000000
140625288.000000,82205364.000000
140453579.000000,82263818.000000
140317039.000000,82347819.000000
140251019.000000,82366500.000000
139347338.000000,82366500.000000
139279824.000000,82346885.000000
139246583.000000,82325790.000000
139156666.000000,82268727.000000
139127463.000000,82258328.000000
138992425.000000,82210243.000000
138992420.000000,82210242.000000
138985790.000000,82207881.000000
138978802.000000,82207048.000000
138978799.000000,82207047.000000
138855698.000000,82192368.000000
138805680.000000,82186404.000000
138798677.000000,82187140.000000
138798676.000000,82187140.000000
138632288.000000,82204628.000000
138632286.000000,82204629.000000
138625288.000000,82205364.000000
138453579.000000,82263818.000000
138447575.000000,82267512.000000
138305095.000000,82355166.000000
138305092.000000,82355168.000000
138299088.000000,82358862.000000
138294053.000000,82363793.000000
138294050.000000,82363795.000000
138174525.000000,82480843.000000
138169493.000000,82485771.000000
138071235.000000,82638238.000000
138068826.000000,82644858.000000
138068824.000000,82644861.000000
138011606.000000,82802066.000000
138009197.000000,82808685.000000
137986463.000000,82988640.000000
130500000.000000,82988640.000000
130500000.000000,77126000.000000
130520002.000000,77057879.000000
130573658.000000,77011386.000000
130626000.000000,77000000.000000
151374000.000000,77000000.000000
Z" /> 
</g>
</g>
</g> 
</svg>
