<?xml version="1.0" standalone="no"?>
 <!DOCTYPE svg PUBLIC "-//W3C//DTD SVG 1.1//EN" 
 "http://www.w3.org/Graphics/SVG/1.1/DTD/svg11.dtd"> 
<svg
  xmlns:svg="http://www.w3.org/2000/svg"
  xmlns="http://www.w3.org/2000/svg"
  xmlns:xlink="http://www.w3.org/1999/xlink"
  version="1.1"
  width="29.700220cm" height="21.000720cm" viewBox="0 0 297002200 210007200">
<title>SVG Picture created as NCV68261-F_Cu.svg date 2022/09/01 15:07:17 </title>
  <desc>Picture generated by PCBNEW </desc>
<g style="fill:#000000; fill-opacity:1.000000;stroke:#000000; stroke-opacity:1.000000;
stroke-linecap:round; stroke-linejoin:round;"
 transform="translate(0 0) scale(1 1)">
</g>
<g style="fill:#000000; fill-opacity:0.0; 
stroke:#000000; stroke-width:0.000000; stroke-opacity:1; 
stroke-linecap:round; stroke-linejoin:round;">
<g >
</g>
<g style="fill:#000000; fill-opacity:0.0; 
stroke:#000000; stroke-width:1.000000; stroke-opacity:1; 
stroke-linecap:round; stroke-linejoin:round;">
</g>
<g style="fill:#000000; fill-opacity:1.0; 
stroke:#000000; stroke-width:1.000000; stroke-opacity:1; 
stroke-linecap:round; stroke-linejoin:round;">
<path style="fill:#000000; fill-opacity:1.0; 
stroke:#000000; stroke-width:1.000000; stroke-opacity:1; 
stroke-linecap:round; stroke-linejoin:round;fill-rule:evenodd;"
d="M 139225000.000000,83925000.000000
139225000.000000,83575000.000000
139875000.000000,83575000.000000
139875000.000000,83925000.000000
Z" /> 
<path style="fill:#000000; fill-opacity:1.0; 
stroke:#000000; stroke-width:1.000000; stroke-opacity:1; 
stroke-linecap:round; stroke-linejoin:round;fill-rule:evenodd;"
d="M 139225000.000000,84575000.000000
139225000.000000,84225000.000000
139875000.000000,84225000.000000
139875000.000000,84575000.000000
Z" /> 
<path style="fill:#000000; fill-opacity:1.0; 
stroke:#000000; stroke-width:1.000000; stroke-opacity:1; 
stroke-linecap:round; stroke-linejoin:round;fill-rule:evenodd;"
d="M 139225000.000000,85225000.000000
139225000.000000,84875000.000000
139875000.000000,84875000.000000
139875000.000000,85225000.000000
Z" /> 
<path style="fill:#000000; fill-opacity:1.0; 
stroke:#000000; stroke-width:1.000000; stroke-opacity:1; 
stroke-linecap:round; stroke-linejoin:round;fill-rule:evenodd;"
d="M 141325000.000000,85225000.000000
141325000.000000,84875000.000000
141975000.000000,84875000.000000
141975000.000000,85225000.000000
Z" /> 
<path style="fill:#000000; fill-opacity:1.0; 
stroke:#000000; stroke-width:1.000000; stroke-opacity:1; 
stroke-linecap:round; stroke-linejoin:round;fill-rule:evenodd;"
d="M 141325000.000000,84575000.000000
141325000.000000,84225000.000000
141975000.000000,84225000.000000
141975000.000000,84575000.000000
Z" /> 
<path style="fill:#000000; fill-opacity:1.0; 
stroke:#000000; stroke-width:1.000000; stroke-opacity:1; 
stroke-linecap:round; stroke-linejoin:round;fill-rule:evenodd;"
d="M 141325000.000000,83925000.000000
141325000.000000,83575000.000000
141975000.000000,83575000.000000
141975000.000000,83925000.000000
Z" /> 
<path style="fill:#000000; fill-opacity:1.0; 
stroke:#000000; stroke-width:1.000000; stroke-opacity:1; 
stroke-linecap:round; stroke-linejoin:round;fill-rule:evenodd;"
d="M 140100000.000000,85200000.000000
140100000.000000,83600000.000000
141100000.000000,83600000.000000
141100000.000000,85200000.000000
Z" /> 
</g>
<g >
</g>
<g style="fill:#000000; fill-opacity:1.0; 
stroke:#000000; stroke-width:1.000000; stroke-opacity:1; 
stroke-linecap:round; stroke-linejoin:round;">
<path style="fill:#000000; fill-opacity:1.0; 
stroke:#000000; stroke-width:1.000000; stroke-opacity:1; 
stroke-linecap:round; stroke-linejoin:round;fill-rule:evenodd;"
d="M 144675000.000000,83175000.000000
144751537.000000,83190224.000000
144816421.000000,83233579.000000
144859776.000000,83298463.000000
144875000.000000,83375000.000000
144875000.000000,83775000.000000
144859776.000000,83851537.000000
144816421.000000,83916421.000000
144751537.000000,83959776.000000
144675000.000000,83975000.000000
144125000.000000,83975000.000000
144048463.000000,83959776.000000
143983579.000000,83916421.000000
143940224.000000,83851537.000000
143925000.000000,83775000.000000
143925000.000000,83375000.000000
143940224.000000,83298463.000000
143983579.000000,83233579.000000
144048463.000000,83190224.000000
144125000.000000,83175000.000000
Z" /> 
<path style="fill:#000000; fill-opacity:1.0; 
stroke:#000000; stroke-width:1.000000; stroke-opacity:1; 
stroke-linecap:round; stroke-linejoin:round;fill-rule:evenodd;"
d="M 144675000.000000,84825000.000000
144751537.000000,84840224.000000
144816421.000000,84883579.000000
144859776.000000,84948463.000000
144875000.000000,85025000.000000
144875000.000000,85425000.000000
144859776.000000,85501537.000000
144816421.000000,85566421.000000
144751537.000000,85609776.000000
144675000.000000,85625000.000000
144125000.000000,85625000.000000
144048463.000000,85609776.000000
143983579.000000,85566421.000000
143940224.000000,85501537.000000
143925000.000000,85425000.000000
143925000.000000,85025000.000000
143940224.000000,84948463.000000
143983579.000000,84883579.000000
144048463.000000,84840224.000000
144125000.000000,84825000.000000
Z" /> 
</g>
<g >
</g>
<g style="fill:#000000; fill-opacity:1.0; 
stroke:#000000; stroke-width:1.000000; stroke-opacity:1; 
stroke-linecap:round; stroke-linejoin:round;">
<path style="fill:#000000; fill-opacity:1.0; 
stroke:#000000; stroke-width:1.000000; stroke-opacity:1; 
stroke-linecap:round; stroke-linejoin:round;fill-rule:evenodd;"
d="M 134975000.000000,83525000.000000
134990224.000000,83448463.000000
135033579.000000,83383579.000000
135098463.000000,83340224.000000
135175000.000000,83325000.000000
135575000.000000,83325000.000000
135651537.000000,83340224.000000
135716421.000000,83383579.000000
135759776.000000,83448463.000000
135775000.000000,83525000.000000
135775000.000000,84075000.000000
135759776.000000,84151537.000000
135716421.000000,84216421.000000
135651537.000000,84259776.000000
135575000.000000,84275000.000000
135175000.000000,84275000.000000
135098463.000000,84259776.000000
135033579.000000,84216421.000000
134990224.000000,84151537.000000
134975000.000000,84075000.000000
Z" /> 
<path style="fill:#000000; fill-opacity:1.0; 
stroke:#000000; stroke-width:1.000000; stroke-opacity:1; 
stroke-linecap:round; stroke-linejoin:round;fill-rule:evenodd;"
d="M 136625000.000000,83525000.000000
136640224.000000,83448463.000000
136683579.000000,83383579.000000
136748463.000000,83340224.000000
136825000.000000,83325000.000000
137225000.000000,83325000.000000
137301537.000000,83340224.000000
137366421.000000,83383579.000000
137409776.000000,83448463.000000
137425000.000000,83525000.000000
137425000.000000,84075000.000000
137409776.000000,84151537.000000
137366421.000000,84216421.000000
137301537.000000,84259776.000000
137225000.000000,84275000.000000
136825000.000000,84275000.000000
136748463.000000,84259776.000000
136683579.000000,84216421.000000
136640224.000000,84151537.000000
136625000.000000,84075000.000000
Z" /> 
</g>
<g >
</g>
<g style="fill:#000000; fill-opacity:1.0; 
stroke:#000000; stroke-width:1.000000; stroke-opacity:1; 
stroke-linecap:round; stroke-linejoin:round;">
<path style="fill:#000000; fill-opacity:1.0; 
stroke:#000000; stroke-width:1.000000; stroke-opacity:1; 
stroke-linecap:round; stroke-linejoin:round;fill-rule:evenodd;"
d="M 147905000.000000,81600000.000000
147905000.000000,82210000.000000
146635000.000000,82210000.000000
146635000.000000,81600000.000000
Z" /> 
<path style="fill:#000000; fill-opacity:1.0; 
stroke:#000000; stroke-width:1.000000; stroke-opacity:1; 
stroke-linecap:round; stroke-linejoin:round;fill-rule:evenodd;"
d="M 147905000.000000,80330000.000000
147905000.000000,80940000.000000
146635000.000000,80940000.000000
146635000.000000,80330000.000000
Z" /> 
<path style="fill:#000000; fill-opacity:1.0; 
stroke:#000000; stroke-width:1.000000; stroke-opacity:1; 
stroke-linecap:round; stroke-linejoin:round;fill-rule:evenodd;"
d="M 147905000.000000,79060000.000000
147905000.000000,79670000.000000
146635000.000000,79670000.000000
146635000.000000,79060000.000000
Z" /> 
<path style="fill:#000000; fill-opacity:1.0; 
stroke:#000000; stroke-width:1.000000; stroke-opacity:1; 
stroke-linecap:round; stroke-linejoin:round;fill-rule:evenodd;"
d="M 147905000.000000,77790000.000000
147905000.000000,78400000.000000
146635000.000000,78400000.000000
146635000.000000,77790000.000000
Z" /> 
<path style="fill:#000000; fill-opacity:1.0; 
stroke:#000000; stroke-width:1.000000; stroke-opacity:1; 
stroke-linecap:round; stroke-linejoin:round;fill-rule:evenodd;"
d="M 142315000.000000,80330000.000000
142315000.000000,80940000.000000
141295000.000000,80940000.000000
141295000.000000,80330000.000000
Z" /> 
<path style="fill:#000000; fill-opacity:1.0; 
stroke:#000000; stroke-width:1.000000; stroke-opacity:1; 
stroke-linecap:round; stroke-linejoin:round;fill-rule:evenodd;"
d="M 142315000.000000,81600000.000000
142315000.000000,82210000.000000
141295000.000000,82210000.000000
141295000.000000,81600000.000000
Z" /> 
<path style="fill:#000000; fill-opacity:1.0; 
stroke:#000000; stroke-width:1.000000; stroke-opacity:1; 
stroke-linecap:round; stroke-linejoin:round;fill-rule:evenodd;"
d="M 142315000.000000,77790000.000000
142315000.000000,78400000.000000
141295000.000000,78400000.000000
141295000.000000,77790000.000000
Z" /> 
<path style="fill:#000000; fill-opacity:1.0; 
stroke:#000000; stroke-width:1.000000; stroke-opacity:1; 
stroke-linecap:round; stroke-linejoin:round;fill-rule:evenodd;"
d="M 145815000.000000,78045000.000000
145815000.000000,81955000.000000
142005000.000000,81955000.000000
142005000.000000,78045000.000000
Z" /> 
<path style="fill:#000000; fill-opacity:1.0; 
stroke:#000000; stroke-width:1.000000; stroke-opacity:1; 
stroke-linecap:round; stroke-linejoin:round;fill-rule:evenodd;"
d="M 142315000.000000,79060000.000000
142315000.000000,79670000.000000
141295000.000000,79670000.000000
141295000.000000,79060000.000000
Z" /> 
</g>
<g >
</g>
<g style="fill:#000000; fill-opacity:1.0; 
stroke:#000000; stroke-width:1.000000; stroke-opacity:1; 
stroke-linecap:round; stroke-linejoin:round;">
<path style="fill:#000000; fill-opacity:1.0; 
stroke:#000000; stroke-width:1.000000; stroke-opacity:1; 
stroke-linecap:round; stroke-linejoin:round;fill-rule:evenodd;"
d="M 139595000.000000,80940000.000000
139595000.000000,80330000.000000
140615000.000000,80330000.000000
140615000.000000,80940000.000000
Z" /> 
<path style="fill:#000000; fill-opacity:1.0; 
stroke:#000000; stroke-width:1.000000; stroke-opacity:1; 
stroke-linecap:round; stroke-linejoin:round;fill-rule:evenodd;"
d="M 136095000.000000,81955000.000000
136095000.000000,78045000.000000
139905000.000000,78045000.000000
139905000.000000,81955000.000000
Z" /> 
<path style="fill:#000000; fill-opacity:1.0; 
stroke:#000000; stroke-width:1.000000; stroke-opacity:1; 
stroke-linecap:round; stroke-linejoin:round;fill-rule:evenodd;"
d="M 139595000.000000,82210000.000000
139595000.000000,81600000.000000
140615000.000000,81600000.000000
140615000.000000,82210000.000000
Z" /> 
<path style="fill:#000000; fill-opacity:1.0; 
stroke:#000000; stroke-width:1.000000; stroke-opacity:1; 
stroke-linecap:round; stroke-linejoin:round;fill-rule:evenodd;"
d="M 139595000.000000,78400000.000000
139595000.000000,77790000.000000
140615000.000000,77790000.000000
140615000.000000,78400000.000000
Z" /> 
<path style="fill:#000000; fill-opacity:1.0; 
stroke:#000000; stroke-width:1.000000; stroke-opacity:1; 
stroke-linecap:round; stroke-linejoin:round;fill-rule:evenodd;"
d="M 139595000.000000,79670000.000000
139595000.000000,79060000.000000
140615000.000000,79060000.000000
140615000.000000,79670000.000000
Z" /> 
<path style="fill:#000000; fill-opacity:1.0; 
stroke:#000000; stroke-width:1.000000; stroke-opacity:1; 
stroke-linecap:round; stroke-linejoin:round;fill-rule:evenodd;"
d="M 134005000.000000,82210000.000000
134005000.000000,81600000.000000
135275000.000000,81600000.000000
135275000.000000,82210000.000000
Z" /> 
<path style="fill:#000000; fill-opacity:1.0; 
stroke:#000000; stroke-width:1.000000; stroke-opacity:1; 
stroke-linecap:round; stroke-linejoin:round;fill-rule:evenodd;"
d="M 134005000.000000,80940000.000000
134005000.000000,80330000.000000
135275000.000000,80330000.000000
135275000.000000,80940000.000000
Z" /> 
<path style="fill:#000000; fill-opacity:1.0; 
stroke:#000000; stroke-width:1.000000; stroke-opacity:1; 
stroke-linecap:round; stroke-linejoin:round;fill-rule:evenodd;"
d="M 134005000.000000,79670000.000000
134005000.000000,79060000.000000
135275000.000000,79060000.000000
135275000.000000,79670000.000000
Z" /> 
<path style="fill:#000000; fill-opacity:1.0; 
stroke:#000000; stroke-width:1.000000; stroke-opacity:1; 
stroke-linecap:round; stroke-linejoin:round;fill-rule:evenodd;"
d="M 134005000.000000,78400000.000000
134005000.000000,77790000.000000
135275000.000000,77790000.000000
135275000.000000,78400000.000000
Z" /> 
</g>
<g >
</g>
<g style="fill:#000000; fill-opacity:1.0; 
stroke:#000000; stroke-width:1.000000; stroke-opacity:1; 
stroke-linecap:round; stroke-linejoin:round;">
<path style="fill:#000000; fill-opacity:1.0; 
stroke:#000000; stroke-width:1.000000; stroke-opacity:1; 
stroke-linecap:round; stroke-linejoin:round;fill-rule:evenodd;"
d="M 151100000.000000,80750000.000000
151195671.000000,80769030.000000
151276777.000000,80823223.000000
151330970.000000,80904329.000000
151350000.000000,81000000.000000
151350000.000000,81650000.000000
151330970.000000,81745671.000000
151276777.000000,81826777.000000
151195671.000000,81880970.000000
151100000.000000,81900000.000000
148900000.000000,81900000.000000
148804329.000000,81880970.000000
148723223.000000,81826777.000000
148669030.000000,81745671.000000
148650000.000000,81650000.000000
148650000.000000,81000000.000000
148669030.000000,80904329.000000
148723223.000000,80823223.000000
148804329.000000,80769030.000000
148900000.000000,80750000.000000
Z" /> 
<path style="fill:#000000; fill-opacity:1.0; 
stroke:#000000; stroke-width:1.000000; stroke-opacity:1; 
stroke-linecap:round; stroke-linejoin:round;fill-rule:evenodd;"
d="M 151100000.000000,83700000.000000
151195671.000000,83719030.000000
151276777.000000,83773223.000000
151330970.000000,83854329.000000
151350000.000000,83950000.000000
151350000.000000,84600000.000000
151330970.000000,84695671.000000
151276777.000000,84776777.000000
151195671.000000,84830970.000000
151100000.000000,84850000.000000
148900000.000000,84850000.000000
148804329.000000,84830970.000000
148723223.000000,84776777.000000
148669030.000000,84695671.000000
148650000.000000,84600000.000000
148650000.000000,83950000.000000
148669030.000000,83854329.000000
148723223.000000,83773223.000000
148804329.000000,83719030.000000
148900000.000000,83700000.000000
Z" /> 
</g>
<g >
</g>
<g style="fill:#000000; fill-opacity:1.0; 
stroke:#000000; stroke-width:1.000000; stroke-opacity:1; 
stroke-linecap:round; stroke-linejoin:round;">
<path style="fill:#000000; fill-opacity:1.0; 
stroke:#000000; stroke-width:1.000000; stroke-opacity:1; 
stroke-linecap:round; stroke-linejoin:round;fill-rule:evenodd;"
d="M 145750000.000000,85625000.000000
145663896.000000,85607873.000000
145590901.000000,85559099.000000
145542127.000000,85486104.000000
145525000.000000,85400000.000000
145525000.000000,84950000.000000
145542127.000000,84863896.000000
145590901.000000,84790901.000000
145663896.000000,84742127.000000
145750000.000000,84725000.000000
146250000.000000,84725000.000000
146336104.000000,84742127.000000
146409099.000000,84790901.000000
146457873.000000,84863896.000000
146475000.000000,84950000.000000
146475000.000000,85400000.000000
146457873.000000,85486104.000000
146409099.000000,85559099.000000
146336104.000000,85607873.000000
146250000.000000,85625000.000000
Z" /> 
<path style="fill:#000000; fill-opacity:1.0; 
stroke:#000000; stroke-width:1.000000; stroke-opacity:1; 
stroke-linecap:round; stroke-linejoin:round;fill-rule:evenodd;"
d="M 145750000.000000,84075000.000000
145663896.000000,84057873.000000
145590901.000000,84009099.000000
145542127.000000,83936104.000000
145525000.000000,83850000.000000
145525000.000000,83400000.000000
145542127.000000,83313896.000000
145590901.000000,83240901.000000
145663896.000000,83192127.000000
145750000.000000,83175000.000000
146250000.000000,83175000.000000
146336104.000000,83192127.000000
146409099.000000,83240901.000000
146457873.000000,83313896.000000
146475000.000000,83400000.000000
146475000.000000,83850000.000000
146457873.000000,83936104.000000
146409099.000000,84009099.000000
146336104.000000,84057873.000000
146250000.000000,84075000.000000
Z" /> 
</g>
<g >
</g>
<g style="fill:#000000; fill-opacity:1.0; 
stroke:#000000; stroke-width:1.000000; stroke-opacity:1; 
stroke-linecap:round; stroke-linejoin:round;">
<path style="fill:#000000; fill-opacity:1.0; 
stroke:#000000; stroke-width:1.000000; stroke-opacity:1; 
stroke-linecap:round; stroke-linejoin:round;fill-rule:evenodd;"
d="M 133100000.000000,80350000.000000
133195671.000000,80369030.000000
133276777.000000,80423223.000000
133330970.000000,80504329.000000
133350000.000000,80600000.000000
133350000.000000,81250000.000000
133330970.000000,81345671.000000
133276777.000000,81426777.000000
133195671.000000,81480970.000000
133100000.000000,81500000.000000
130900000.000000,81500000.000000
130804329.000000,81480970.000000
130723223.000000,81426777.000000
130669030.000000,81345671.000000
130650000.000000,81250000.000000
130650000.000000,80600000.000000
130669030.000000,80504329.000000
130723223.000000,80423223.000000
130804329.000000,80369030.000000
130900000.000000,80350000.000000
Z" /> 
<path style="fill:#000000; fill-opacity:1.0; 
stroke:#000000; stroke-width:1.000000; stroke-opacity:1; 
stroke-linecap:round; stroke-linejoin:round;fill-rule:evenodd;"
d="M 133100000.000000,83300000.000000
133195671.000000,83319030.000000
133276777.000000,83373223.000000
133330970.000000,83454329.000000
133350000.000000,83550000.000000
133350000.000000,84200000.000000
133330970.000000,84295671.000000
133276777.000000,84376777.000000
133195671.000000,84430970.000000
133100000.000000,84450000.000000
130900000.000000,84450000.000000
130804329.000000,84430970.000000
130723223.000000,84376777.000000
130669030.000000,84295671.000000
130650000.000000,84200000.000000
130650000.000000,83550000.000000
130669030.000000,83454329.000000
130723223.000000,83373223.000000
130804329.000000,83319030.000000
130900000.000000,83300000.000000
Z" /> 
</g>
<g >
</g>
<g style="fill:#000000; fill-opacity:1.0; 
stroke:#000000; stroke-width:1.000000; stroke-opacity:1; 
stroke-linecap:round; stroke-linejoin:round;">
<circle cx="132500000.000000" cy="82500000.000000" r="300000.000000" /> 
</g>
<g style="fill:#000000; fill-opacity:1.0; 
stroke:#000000; stroke-width:21200.000000; stroke-opacity:1; 
stroke-linecap:round; stroke-linejoin:round;">
</g>
<g style="fill:#000000; fill-opacity:1.0; 
stroke:#000000; stroke-width:1.000000; stroke-opacity:1; 
stroke-linecap:round; stroke-linejoin:round;">
<circle cx="131500000.000000" cy="82500000.000000" r="300000.000000" /> 
</g>
<g style="fill:#000000; fill-opacity:1.0; 
stroke:#000000; stroke-width:21200.000000; stroke-opacity:1; 
stroke-linecap:round; stroke-linejoin:round;">
</g>
<g style="fill:#000000; fill-opacity:1.0; 
stroke:#000000; stroke-width:1.000000; stroke-opacity:1; 
stroke-linecap:round; stroke-linejoin:round;">
<circle cx="150500000.000000" cy="83000000.000000" r="300000.000000" /> 
</g>
<g style="fill:#000000; fill-opacity:1.0; 
stroke:#000000; stroke-width:21200.000000; stroke-opacity:1; 
stroke-linecap:round; stroke-linejoin:round;">
</g>
<g style="fill:#000000; fill-opacity:1.0; 
stroke:#000000; stroke-width:1.000000; stroke-opacity:1; 
stroke-linecap:round; stroke-linejoin:round;">
<circle cx="149500000.000000" cy="83000000.000000" r="300000.000000" /> 
</g>
<g style="fill:#000000; fill-opacity:1.0; 
stroke:#000000; stroke-width:21200.000000; stroke-opacity:1; 
stroke-linecap:round; stroke-linejoin:round;">
</g>
<g style="fill:#000000; fill-opacity:1.0; 
stroke:#000000; stroke-width:1.000000; stroke-opacity:1; 
stroke-linecap:round; stroke-linejoin:round;">
<circle cx="147000000.000000" cy="85000000.000000" r="300000.000000" /> 
</g>
<g style="fill:#000000; fill-opacity:1.0; 
stroke:#000000; stroke-width:21200.000000; stroke-opacity:1; 
stroke-linecap:round; stroke-linejoin:round;">
</g>
<g style="fill:#000000; fill-opacity:1.0; 
stroke:#000000; stroke-width:1.000000; stroke-opacity:1; 
stroke-linecap:round; stroke-linejoin:round;">
<circle cx="142600000.000000" cy="85200000.000000" r="300000.000000" /> 
</g>
<g style="fill:#000000; fill-opacity:1.0; 
stroke:#000000; stroke-width:21200.000000; stroke-opacity:1; 
stroke-linecap:round; stroke-linejoin:round;">
</g>
<g style="fill:#000000; fill-opacity:1.0; 
stroke:#000000; stroke-width:1.000000; stroke-opacity:1; 
stroke-linecap:round; stroke-linejoin:round;">
<circle cx="138800000.000000" cy="83000000.000000" r="300000.000000" /> 
</g>
<g style="fill:#000000; fill-opacity:1.0; 
stroke:#000000; stroke-width:21200.000000; stroke-opacity:1; 
stroke-linecap:round; stroke-linejoin:round;">
</g>
<g style="fill:#000000; fill-opacity:1.0; 
stroke:#000000; stroke-width:1.000000; stroke-opacity:1; 
stroke-linecap:round; stroke-linejoin:round;">
<circle cx="140800000.000000" cy="83000000.000000" r="300000.000000" /> 
</g>
<g style="fill:#000000; fill-opacity:1.0; 
stroke:#000000; stroke-width:21200.000000; stroke-opacity:1; 
stroke-linecap:round; stroke-linejoin:round;">
</g>
<g style="fill:#000000; fill-opacity:1.0; 
stroke:#000000; stroke-width:1.000000; stroke-opacity:1; 
stroke-linecap:round; stroke-linejoin:round;">
<circle cx="142600000.000000" cy="84400000.000000" r="300000.000000" /> 
</g>
<g style="fill:#000000; fill-opacity:1.0; 
stroke:#000000; stroke-width:21200.000000; stroke-opacity:1; 
stroke-linecap:round; stroke-linejoin:round;">
</g>
<g style="fill:#000000; fill-opacity:1.0; 
stroke:#000000; stroke-width:1.000000; stroke-opacity:1; 
stroke-linecap:round; stroke-linejoin:round;">
<circle cx="139600000.000000" cy="85800000.000000" r="300000.000000" /> 
</g>
<g style="fill:#000000; fill-opacity:1.0; 
stroke:#000000; stroke-width:21200.000000; stroke-opacity:1; 
stroke-linecap:round; stroke-linejoin:round;">
</g>
<g >
</g>
<g style="fill:#000000; fill-opacity:1.0; 
stroke:#000000; stroke-width:21200.000000; stroke-opacity:1; 
stroke-linecap:round; stroke-linejoin:round;">
</g>
<g style="fill:#000000; fill-opacity:1.0; 
stroke:#000000; stroke-width:250000.000000; stroke-opacity:1; 
stroke-linecap:round; stroke-linejoin:round;">
</g>
<g style="fill:#000000; fill-opacity:0.0; 
stroke:#000000; stroke-width:250000.000000; stroke-opacity:1; 
stroke-linecap:round; stroke-linejoin:round;">
<path d="M132000000 83000000
L132500000 82500000
" />
<path d="M132000000 83000000
L131500000 82500000
" />
<path d="M132000000 83875000
L132000000 83000000
" />
<path d="M150000000 83500000
L150500000 83000000
" />
<path d="M150000000 83500000
L149500000 83000000
" />
<path d="M150000000 84275000
L150000000 83500000
" />
<path d="M146825000 85175000
L147000000 85000000
" />
<path d="M146000000 85175000
L146825000 85175000
" />
<path d="M142450000 85050000
L142600000 85200000
" />
<path d="M141650000 85050000
L142450000 85050000
" />
<path d="M144400000 83575000
L144025000 83575000
" />
<path d="M138800000 84600000
L139000000 84400000
" />
<path d="M144025000 83575000
L143400000 84200000
" />
<path d="M143400000 84200000
L143400000 85900000
" />
<path d="M143400000 85900000
L142875000 86425000
" />
<path d="M139225000 86425000
L138800000 86000000
" />
<path d="M138800000 86000000
L138800000 84600000
" />
<path d="M142875000 86425000
L139225000 86425000
" />
<path d="M139000000 84400000
L139550000 84400000
" />
<path d="M141650000 83750000
L141650000 83245000
" />
<path d="M141405000 83000000
L140800000 83000000
" />
<path d="M136400000 83000000
L135600000 82200000
" />
<path d="M141650000 83245000
L141405000 83000000
" />
<path d="M138800000 83000000
L136400000 83000000
" />
<path d="M135600000 81265000
L134970000 80635000
" />
<path d="M135600000 82200000
L135600000 81265000
" />
<path d="M134970000 80635000
L134640000 80635000
" />
<path d="M141650000 84400000
L142600000 84400000
" />
<path d="M139550000 85750000
L139600000 85800000
" />
<path d="M139550000 85050000
L139550000 85750000
" />
<path d="M144400000 85225000
L146000000 83625000
" />
<path d="M147270000 78095000
L146950000 78095000
" />
<path d="M146950000 78095000
L146140000 78905000
" />
<path d="M146140000 78905000
L146140000 82232183
" />
<path d="M144797183 83575000
L144400000 83575000
" />
<path d="M146140000 82232183
L144797183 83575000
" />
<path d="M134640000 83065000
L134640000 81905000
" />
<path d="M135375000 83800000
L134640000 83065000
" />
<path d="M139550000 84400000
L137625000 84400000
" />
<path d="M137625000 84400000
L137025000 83800000
" />
<path d="M139550000 83750000
L139550000 82460000
" />
<path d="M139550000 82460000
L140105000 81905000
" />
</g>
<g >
</g>
<g style="fill:#000000; fill-opacity:0.0; 
stroke:#000000; stroke-width:250000.000000; stroke-opacity:1; 
stroke-linecap:round; stroke-linejoin:round;">
<g >
</g>
<g style="fill:#000000; fill-opacity:1.0; 
stroke:#000000; stroke-width:1.000000; stroke-opacity:1; 
stroke-linecap:round; stroke-linejoin:round;">
<path style="fill:#000000; fill-opacity:1.0; 
stroke:#000000; stroke-width:1.000000; stroke-opacity:1; 
stroke-linecap:round; stroke-linejoin:round;fill-rule:evenodd;"
d="M 135942121.000000,77020002.000000
135988614.000000,77073658.000000
136000000.000000,77126000.000000
136000000.000000,77450186.000000
135979998.000000,77518307.000000
135926342.000000,77564800.000000
135918246.000000,77568161.000000
135880101.000000,77582461.000000
135870320.000000,77586128.000000
135799512.000000,77591310.000000
135737144.000000,77557388.000000
135726185.000000,77542779.000000
135725172.000000,77543538.000000
135643285.000000,77434276.000000
135630724.000000,77421715.000000
135528649.000000,77345214.000000
135513054.000000,77336676.000000
135392606.000000,77291522.000000
135377351.000000,77287895.000000
135326486.000000,77282369.000000
135319672.000000,77282000.000000
134912115.000000,77282000.000000
134896876.000000,77286475.000000
134895671.000000,77287865.000000
134894000.000000,77295548.000000
134894000.000000,80763000.000000
134873998.000000,80831121.000000
134820342.000000,80877614.000000
134768000.000000,80889000.000000
134512000.000000,80889000.000000
134443879.000000,80868998.000000
134397386.000000,80815342.000000
134386000.000000,80763000.000000
134386000.000000,79637115.000000
134381525.000000,79621876.000000
134380135.000000,79620671.000000
134372452.000000,79619000.000000
133515116.000000,79619000.000000
133499877.000000,79623475.000000
133498672.000000,79624865.000000
133497001.000000,79632548.000000
133497001.000000,79714669.000000
133497371.000000,79721491.000000
133500049.000000,79746152.000000
133487520.000000,79816034.000000
133439198.000000,79868049.000000
133370425.000000,79885682.000000
133335119.000000,79879350.000000
133261293.000000,79854863.000000
133247914.000000,79851995.000000
133153562.000000,79842328.000000
133147145.000000,79842000.000000
132272115.000000,79842000.000000
132256876.000000,79846475.000000
132255671.000000,79847865.000000
132254000.000000,79855548.000000
132254000.000000,81053000.000000
132233998.000000,81121121.000000
132180342.000000,81167614.000000
132128000.000000,81179000.000000
131872000.000000,81179000.000000
131803879.000000,81158998.000000
131757386.000000,81105342.000000
131746000.000000,81053000.000000
131746000.000000,79860116.000000
131741525.000000,79844877.000000
131740135.000000,79843672.000000
131732452.000000,79842001.000000
130852905.000000,79842001.000000
130846386.000000,79842338.000000
130750794.000000,79852257.000000
130737400.000000,79855149.000000
130665876.000000,79879011.000000
130594926.000000,79881595.000000
130533842.000000,79845411.000000
130502018.000000,79781947.000000
130500000.000000,79759487.000000
130500000.000000,79092885.000000
133497000.000000,79092885.000000
133501475.000000,79108124.000000
133502865.000000,79109329.000000
133510548.000000,79111000.000000
134367885.000000,79111000.000000
134383124.000000,79106525.000000
134384329.000000,79105135.000000
134386000.000000,79097452.000000
134386000.000000,78367115.000000
134381525.000000,78351876.000000
134380135.000000,78350671.000000
134372452.000000,78349000.000000
133515116.000000,78349000.000000
133499877.000000,78353475.000000
133498672.000000,78354865.000000
133497001.000000,78362548.000000
133497001.000000,78444669.000000
133497371.000000,78451490.000000
133502895.000000,78502352.000000
133506521.000000,78517604.000000
133551676.000000,78638054.000000
133560213.000000,78653647.000000
133560806.000000,78654438.000000
133561149.000000,78655357.000000
133564522.000000,78661517.000000
133563632.000000,78662004.000000
133585651.000000,78720946.000000
133570596.000000,78790328.000000
133560806.000000,78805562.000000
133560213.000000,78806353.000000
133551676.000000,78821946.000000
133506522.000000,78942394.000000
133502895.000000,78957649.000000
133497369.000000,79008514.000000
133497000.000000,79015328.000000
133497000.000000,79092885.000000
130500000.000000,79092885.000000
130500000.000000,77822885.000000
133497000.000000,77822885.000000
133501475.000000,77838124.000000
133502865.000000,77839329.000000
133510548.000000,77841000.000000
134367885.000000,77841000.000000
134383124.000000,77836525.000000
134384329.000000,77835135.000000
134386000.000000,77827452.000000
134386000.000000,77300116.000000
134381525.000000,77284877.000000
134380135.000000,77283672.000000
134372452.000000,77282001.000000
133960331.000000,77282001.000000
133953510.000000,77282371.000000
133902648.000000,77287895.000000
133887396.000000,77291521.000000
133766946.000000,77336676.000000
133751351.000000,77345214.000000
133649276.000000,77421715.000000
133636715.000000,77434276.000000
133560214.000000,77536351.000000
133551676.000000,77551946.000000
133506522.000000,77672394.000000
133502895.000000,77687649.000000
133497369.000000,77738514.000000
133497000.000000,77745328.000000
133497000.000000,77822885.000000
130500000.000000,77822885.000000
130500000.000000,77126000.000000
130520002.000000,77057879.000000
130573658.000000,77011386.000000
130626000.000000,77000000.000000
135874000.000000,77000000.000000
Z" /> 
</g>
</g>
<g style="fill:#000000; fill-opacity:1.0; 
stroke:#000000; stroke-width:1.000000; stroke-opacity:1; 
stroke-linecap:round; stroke-linejoin:round;">
<g >
<path style="fill:#000000; fill-opacity:1.0; 
stroke:#000000; stroke-width:1.000000; stroke-opacity:1; 
stroke-linecap:round; stroke-linejoin:round;fill-rule:evenodd;"
d="M 151442121.000000,77020002.000000
151488614.000000,77073658.000000
151500000.000000,77126000.000000
151500000.000000,80159496.000000
151479998.000000,80227617.000000
151426342.000000,80274110.000000
151356068.000000,80284214.000000
151334333.000000,80279089.000000
151261293.000000,80254863.000000
151247914.000000,80251995.000000
151153562.000000,80242328.000000
151147145.000000,80242000.000000
150272115.000000,80242000.000000
150256876.000000,80246475.000000
150255671.000000,80247865.000000
150254000.000000,80255548.000000
150254000.000000,81453000.000000
150233998.000000,81521121.000000
150180342.000000,81567614.000000
150128000.000000,81579000.000000
149872000.000000,81579000.000000
149803879.000000,81558998.000000
149757386.000000,81505342.000000
149746000.000000,81453000.000000
149746000.000000,80260116.000000
149741525.000000,80244877.000000
149740135.000000,80243672.000000
149732452.000000,80242001.000000
148852905.000000,80242001.000000
148846386.000000,80242338.000000
148750794.000000,80252257.000000
148737400.000000,80255149.000000
148583213.000000,80306589.000000
148581864.000000,80307221.000000
148580853.000000,80307376.000000
148576268.000000,80308906.000000
148576006.000000,80308121.000000
148511692.000000,80318008.000000
148446827.000000,80289145.000000
148407864.000000,80229795.000000
148405826.000000,80222268.000000
148403478.000000,80212394.000000
148358324.000000,80091946.000000
148349787.000000,80076353.000000
148349194.000000,80075562.000000
148348851.000000,80074643.000000
148345478.000000,80068483.000000
148346368.000000,80067996.000000
148324349.000000,80009054.000000
148339404.000000,79939672.000000
148349194.000000,79924438.000000
148349787.000000,79923647.000000
148358324.000000,79908054.000000
148403478.000000,79787606.000000
148407105.000000,79772351.000000
148412631.000000,79721486.000000
148413000.000000,79714672.000000
148413000.000000,79637115.000000
148408525.000000,79621876.000000
148407135.000000,79620671.000000
148399452.000000,79619000.000000
147542115.000000,79619000.000000
147526876.000000,79623475.000000
147525671.000000,79624865.000000
147524000.000000,79632548.000000
147524000.000000,82699884.000000
147528475.000000,82715123.000000
147529865.000000,82716328.000000
147537548.000000,82717999.000000
147949669.000000,82717999.000000
147956490.000000,82717629.000000
148007352.000000,82712105.000000
148022604.000000,82708479.000000
148143054.000000,82663324.000000
148158649.000000,82654786.000000
148260724.000000,82578285.000000
148273285.000000,82565724.000000
148349786.000000,82463649.000000
148358325.000000,82448052.000000
148378109.000000,82395278.000000
148420750.000000,82338513.000000
148487312.000000,82313813.000000
148562205.000000,82332246.000000
148571240.000000,82337815.000000
148584426.000000,82343964.000000
148740266.000000,82395654.000000
148798626.000000,82436085.000000
148825863.000000,82501649.000000
148813329.000000,82571531.000000
148806511.000000,82583500.000000
148771235.000000,82638238.000000
148768826.000000,82644858.000000
148768824.000000,82644861.000000
148714982.000000,82792791.000000
148709197.000000,82808685.000000
148708314.000000,82815673.000000
148708314.000000,82815674.000000
148698951.000000,82889792.000000
148670570.000000,82954868.000000
148611510.000000,82994270.000000
148573945.000000,83000000.000000
146935116.000000,83000000.000000
146866995.000000,82979998.000000
146836369.000000,82952263.000000
146832606.000000,82947516.000000
146828752.000000,82941287.000000
146820623.000000,82933172.000000
146819251.000000,82930665.000000
146819023.000000,82930377.000000
146819072.000000,82930338.000000
146786545.000000,82870889.000000
146791548.000000,82800069.000000
146834046.000000,82743197.000000
146900545.000000,82718329.000000
146909642.000000,82718000.000000
146997885.000000,82718000.000000
147013124.000000,82713525.000000
147014329.000000,82712135.000000
147016000.000000,82704452.000000
147016000.000000,79237000.000000
147036002.000000,79168879.000000
147089658.000000,79122386.000000
147142000.000000,79111000.000000
148394884.000000,79111000.000000
148410123.000000,79106525.000000
148411328.000000,79105135.000000
148412999.000000,79097452.000000
148412999.000000,79015331.000000
148412629.000000,79008510.000000
148407105.000000,78957648.000000
148403479.000000,78942396.000000
148358324.000000,78821946.000000
148349788.000000,78806356.000000
148349509.000000,78805983.000000
148349347.000000,78805550.000000
148345478.000000,78798483.000000
148346498.000000,78797924.000000
148324661.000000,78739477.000000
148339713.000000,78670094.000000
148349510.000000,78654851.000000
148350229.000000,78653892.000000
148350230.000000,78653890.000000
148355615.000000,78646705.000000
148406745.000000,78510316.000000
148413500.000000,78448134.000000
148413500.000000,77741866.000000
148406745.000000,77679684.000000
148355615.000000,77543295.000000
148268261.000000,77426739.000000
148151705.000000,77339385.000000
148015316.000000,77288255.000000
147953134.000000,77281500.000000
146586866.000000,77281500.000000
146524684.000000,77288255.000000
146388295.000000,77339385.000000
146271739.000000,77426739.000000
146266358.000000,77433919.000000
146266357.000000,77433920.000000
146226826.000000,77486666.000000
146169967.000000,77529181.000000
146099148.000000,77534207.000000
146036855.000000,77500147.000000
146002865.000000,77437816.000000
146000000.000000,77411101.000000
146000000.000000,77126000.000000
146020002.000000,77057879.000000
146073658.000000,77011386.000000
146126000.000000,77000000.000000
151374000.000000,77000000.000000
Z" /> 
</g>
</g>
<g style="fill:#000000; fill-opacity:1.0; 
stroke:#000000; stroke-width:1.000000; stroke-opacity:1; 
stroke-linecap:round; stroke-linejoin:round;">
<g >
<path style="fill:#000000; fill-opacity:1.0; 
stroke:#000000; stroke-width:1.000000; stroke-opacity:1; 
stroke-linecap:round; stroke-linejoin:round;fill-rule:evenodd;"
d="M 145542121.000000,77020002.000000
145588614.000000,77073658.000000
145600000.000000,77126000.000000
145600000.000000,78531649.000000
145589637.000000,78581690.000000
145572826.000000,78620538.000000
145567609.000000,78631187.000000
145546305.000000,78669940.000000
145544334.000000,78677615.000000
145544334.000000,78677616.000000
145541267.000000,78689562.000000
145534863.000000,78708266.000000
145526819.000000,78726855.000000
145525580.000000,78734678.000000
145525577.000000,78734688.000000
145519901.000000,78770524.000000
145517495.000000,78782144.000000
145506500.000000,78824970.000000
145506500.000000,78845224.000000
145504949.000000,78864934.000000
145501780.000000,78884943.000000
145502526.000000,78892835.000000
145505941.000000,78928961.000000
145506500.000000,78940819.000000
145506500.000000,81917588.000000
145486498.000000,81985709.000000
145469595.000000,82006684.000000
144913182.000000,82563096.000000
144850870.000000,82597121.000000
144824087.000000,82600000.000000
141954360.000000,82600000.000000
141886239.000000,82579998.000000
141868107.000000,82565850.000000
141847349.000000,82546357.000000
141844507.000000,82543602.000000
141824770.000000,82523865.000000
141821573.000000,82521385.000000
141812551.000000,82513680.000000
141798624.000000,82500602.000000
141780321.000000,82483414.000000
141773375.000000,82479595.000000
141773372.000000,82479593.000000
141762566.000000,82473652.000000
141746047.000000,82462801.000000
141745583.000000,82462441.000000
141730041.000000,82450386.000000
141722772.000000,82447241.000000
141722768.000000,82447238.000000
141689463.000000,82432826.000000
141678813.000000,82427609.000000
141640060.000000,82406305.000000
141620437.000000,82401267.000000
141601734.000000,82394863.000000
141590420.000000,82389967.000000
141590419.000000,82389967.000000
141583145.000000,82386819.000000
141575322.000000,82385580.000000
141575312.000000,82385577.000000
141539476.000000,82379901.000000
141527856.000000,82377495.000000
141492711.000000,82368472.000000
141492710.000000,82368472.000000
141485030.000000,82366500.000000
141464776.000000,82366500.000000
141445065.000000,82364949.000000
141432886.000000,82363020.000000
141425057.000000,82361780.000000
141417165.000000,82362526.000000
141381039.000000,82365941.000000
141369181.000000,82366500.000000
141347338.000000,82366500.000000
141279824.000000,82346885.000000
141225189.000000,82312213.000000
141156666.000000,82268727.000000
141110365.000000,82252240.000000
140992425.000000,82210243.000000
140992420.000000,82210242.000000
140985790.000000,82207881.000000
140978802.000000,82207048.000000
140978799.000000,82207047.000000
140855698.000000,82192368.000000
140805680.000000,82186404.000000
140798677.000000,82187140.000000
140798676.000000,82187140.000000
140632288.000000,82204628.000000
140632286.000000,82204629.000000
140625288.000000,82205364.000000
140453579.000000,82263818.000000
140447575.000000,82267512.000000
140305095.000000,82355166.000000
140305092.000000,82355168.000000
140299088.000000,82358862.000000
140294053.000000,82363793.000000
140294050.000000,82363795.000000
140174526.000000,82480842.000000
140169493.000000,82485771.000000
140134050.000000,82540769.000000
140133092.000000,82542255.000000
140079377.000000,82588680.000000
140027180.000000,82600000.000000
139573315.000000,82600000.000000
139505194.000000,82579998.000000
139466461.000000,82540769.000000
139441362.000000,82500602.000000
139441359.000000,82500599.000000
139437626.000000,82494624.000000
139347964.000000,82404334.000000
139314778.000000,82370915.000000
139314774.000000,82370912.000000
139309815.000000,82365918.000000
139298697.000000,82358862.000000
139225189.000000,82312213.000000
139156666.000000,82268727.000000
139110365.000000,82252240.000000
138992425.000000,82210243.000000
138992420.000000,82210242.000000
138985790.000000,82207881.000000
138978802.000000,82207048.000000
138978799.000000,82207047.000000
138855698.000000,82192368.000000
138805680.000000,82186404.000000
138798677.000000,82187140.000000
138798676.000000,82187140.000000
138632288.000000,82204628.000000
138632286.000000,82204629.000000
138625288.000000,82205364.000000
138453579.000000,82263818.000000
138317039.000000,82347819.000000
138251019.000000,82366500.000000
136714594.000000,82366500.000000
136646473.000000,82346498.000000
136625499.000000,82329595.000000
136436905.000000,82141001.000000
136402879.000000,82078689.000000
136400000.000000,82051906.000000
136400000.000000,77126000.000000
136420002.000000,77057879.000000
136473658.000000,77011386.000000
136526000.000000,77000000.000000
145474000.000000,77000000.000000
Z" /> 
</g>
</g>
</g> 
</svg>
