<?xml version="1.0" standalone="no"?>
 <!DOCTYPE svg PUBLIC "-//W3C//DTD SVG 1.1//EN" 
 "http://www.w3.org/Graphics/SVG/1.1/DTD/svg11.dtd"> 
<svg
  xmlns:svg="http://www.w3.org/2000/svg"
  xmlns="http://www.w3.org/2000/svg"
  xmlns:xlink="http://www.w3.org/1999/xlink"
  version="1.1"
  width="29.700220cm" height="21.000720cm" viewBox="0 0 297002200 210007200">
<title>SVG Picture created as NCV68261-F_Silkscreen.svg date 2022/09/03 12:37:31 </title>
  <desc>Picture generated by PCBNEW </desc>
<g style="fill:#000000; fill-opacity:1.000000;stroke:#000000; stroke-opacity:1.000000;
stroke-linecap:round; stroke-linejoin:round;"
 transform="translate(0 0) scale(1 1)">
</g>
<g style="fill:#000000; fill-opacity:0.0; 
stroke:#000000; stroke-width:0.000000; stroke-opacity:1; 
stroke-linecap:round; stroke-linejoin:round;">
</g>
<g style="fill:#000000; fill-opacity:0.0; 
stroke:#000000; stroke-width:150000.000000; stroke-opacity:1; 
stroke-linecap:round; stroke-linejoin:round;">
<text x="140600000.000000" y="86900000.000000"
textLength="2150000.000000" font-size="1333333.000000" lengthAdjust="spacingAndGlyphs"
text-anchor="middle" opacity="0">U1</text>
<g class="stroked-text"><desc>U1</desc>
<path d="M139838095 85852380
L139838095 86661904
L139885714 86757142
L139933333 86804761
L140028571 86852380
L140219047 86852380
L140314285 86804761
L140361904 86757142
L140409523 86661904
L140409523 85852380
" />
<path d="M141409523 86852380
L140838095 86852380
" />
<path d="M141123809 86852380
L141123809 85852380
L141028571 85995238
L140933333 86090476
L140838095 86138095
" />
</g><text x="134600000.000000" y="84000000.000000"
textLength="2147381.000000" font-size="1333333.000000" lengthAdjust="spacingAndGlyphs"
text-anchor="middle" opacity="0">C1</text>
<g class="stroked-text"><desc>C1</desc>
<path d="M134433333 83857142
L134385714 83904761
L134242857 83952380
L134147619 83952380
L134004761 83904761
L133909523 83809523
L133861904 83714285
L133814285 83523809
L133814285 83380952
L133861904 83190476
L133909523 83095238
L134004761 83000000
L134147619 82952380
L134242857 82952380
L134385714 83000000
L134433333 83047619
" />
<path d="M135385714 83952380
L134814285 83952380
" />
<path d="M135100000 83952380
L135100000 82952380
L135004761 83095238
L134909523 83190476
L134814285 83238095
" />
</g><text x="137200000.000000" y="85900000.000000"
textLength="2147381.000000" font-size="1333333.000000" lengthAdjust="spacingAndGlyphs"
text-anchor="middle" opacity="0">R1</text>
<g class="stroked-text"><desc>R1</desc>
<path d="M137033333 85852380
L136700000 85376190
" />
<path d="M136461904 85852380
L136461904 84852380
L136842857 84852380
L136938095 84900000
L136985714 84947619
L137033333 85042857
L137033333 85185714
L136985714 85280952
L136938095 85328571
L136842857 85376190
L136461904 85376190
" />
<path d="M137985714 85852380
L137414285 85852380
" />
<path d="M137700000 85852380
L137700000 84852380
L137604761 84995238
L137509523 85090476
L137414285 85138095
" />
</g><text x="142800000.000000" y="78700000.000000"
textLength="2195000.000000" font-size="1333333.000000" lengthAdjust="spacingAndGlyphs"
text-anchor="middle" opacity="0">Q2</text>
<g class="stroked-text"><desc>Q2</desc>
<path d="M142704761 78747619
L142609523 78700000
L142514285 78604761
L142371428 78461904
L142276190 78414285
L142180952 78414285
" />
<path d="M142228571 78652380
L142133333 78604761
L142038095 78509523
L141990476 78319047
L141990476 77985714
L142038095 77795238
L142133333 77700000
L142228571 77652380
L142419047 77652380
L142514285 77700000
L142609523 77795238
L142657142 77985714
L142657142 78319047
L142609523 78509523
L142514285 78604761
L142419047 78652380
L142228571 78652380
" />
<path d="M143038095 77747619
L143085714 77700000
L143180952 77652380
L143419047 77652380
L143514285 77700000
L143561904 77747619
L143609523 77842857
L143609523 77938095
L143561904 78080952
L142990476 78652380
L143609523 78652380
" />
</g><text x="147700000.000000" y="84000000.000000"
textLength="2147381.000000" font-size="1333333.000000" lengthAdjust="spacingAndGlyphs"
text-anchor="middle" opacity="0">C3</text>
<g class="stroked-text"><desc>C3</desc>
<path d="M147533333 83857142
L147485714 83904761
L147342857 83952380
L147247619 83952380
L147104761 83904761
L147009523 83809523
L146961904 83714285
L146914285 83523809
L146914285 83380952
L146961904 83190476
L147009523 83095238
L147104761 83000000
L147247619 82952380
L147342857 82952380
L147485714 83000000
L147533333 83047619
" />
<path d="M147866666 82952380
L148485714 82952380
L148152380 83333333
L148295238 83333333
L148390476 83380952
L148438095 83428571
L148485714 83523809
L148485714 83761904
L148438095 83857142
L148390476 83904761
L148295238 83952380
L148009523 83952380
L147914285 83904761
L147866666 83857142
" />
</g><text x="144200000.000000" y="86900000.000000"
textLength="2147381.000000" font-size="1333333.000000" lengthAdjust="spacingAndGlyphs"
text-anchor="middle" opacity="0">R2</text>
<g class="stroked-text"><desc>R2</desc>
<path d="M144033333 86852380
L143700000 86376190
" />
<path d="M143461904 86852380
L143461904 85852380
L143842857 85852380
L143938095 85900000
L143985714 85947619
L144033333 86042857
L144033333 86185714
L143985714 86280952
L143938095 86328571
L143842857 86376190
L143461904 86376190
" />
<path d="M144414285 85947619
L144461904 85900000
L144557142 85852380
L144795238 85852380
L144890476 85900000
L144938095 85947619
L144985714 86042857
L144985714 86138095
L144938095 86280952
L144366666 86852380
L144985714 86852380
" />
</g><text x="138400000.000000" y="78700000.000000"
textLength="2195000.000000" font-size="1333333.000000" lengthAdjust="spacingAndGlyphs"
text-anchor="middle" opacity="0">Q1</text>
<g class="stroked-text"><desc>Q1</desc>
<path d="M138304761 78747619
L138209523 78700000
L138114285 78604761
L137971428 78461904
L137876190 78414285
L137780952 78414285
" />
<path d="M137828571 78652380
L137733333 78604761
L137638095 78509523
L137590476 78319047
L137590476 77985714
L137638095 77795238
L137733333 77700000
L137828571 77652380
L138019047 77652380
L138114285 77700000
L138209523 77795238
L138257142 77985714
L138257142 78319047
L138209523 78509523
L138114285 78604761
L138019047 78652380
L137828571 78652380
" />
<path d="M139209523 78652380
L138638095 78652380
" />
<path d="M138923809 78652380
L138923809 77652380
L138828571 77795238
L138733333 77890476
L138638095 77938095
" />
</g><text x="146200000.000000" y="86900000.000000"
textLength="2147381.000000" font-size="1333333.000000" lengthAdjust="spacingAndGlyphs"
text-anchor="middle" opacity="0">C2</text>
<g class="stroked-text"><desc>C2</desc>
<path d="M146033333 86757142
L145985714 86804761
L145842857 86852380
L145747619 86852380
L145604761 86804761
L145509523 86709523
L145461904 86614285
L145414285 86423809
L145414285 86280952
L145461904 86090476
L145509523 85995238
L145604761 85900000
L145747619 85852380
L145842857 85852380
L145985714 85900000
L146033333 85947619
" />
<path d="M146414285 85947619
L146461904 85900000
L146557142 85852380
L146795238 85852380
L146890476 85900000
L146938095 85947619
L146985714 86042857
L146985714 86138095
L146938095 86280952
L146366666 86852380
L146985714 86852380
" />
</g><path d="M140600000 83300000
L141600000 83300000
" />
<path d="M139600000 85500000
L141600000 85500000
" />
</g>
<g style="fill:#000000; fill-opacity:0.0; 
stroke:#000000; stroke-width:120000.000000; stroke-opacity:1; 
stroke-linecap:round; stroke-linejoin:round;">
<path d="M135960000 81211252
L135960000 79788748
" />
<path d="M133240000 81211252
L133240000 79788748
" />
<path d="M136962742 83477500
L137437258 83477500
" />
<path d="M136962742 84522500
L137437258 84522500
" />
<path d="M141030000 82570000
L144800000 82570000
" />
<path d="M141030000 82570000
L141030000 82200000
" />
<path d="M144570000 79030000
L144570000 79400000
" />
<path d="M141030000 79030000
L141030000 79400000
" />
<path d="M144570000 79030000
L141030000 79030000
" />
<path d="M147960000 81211252
L147960000 79788748
" />
<path d="M145240000 81211252
L145240000 79788748
" />
<path d="M143877500 84162742
L143877500 84637258
" />
<path d="M144922500 84162742
L144922500 84637258
" />
<path d="M136630000 82570000
L136630000 82200000
" />
<path d="M140170000 82570000
L140170000 82200000
" />
<path d="M136630000 82570000
L140170000 82570000
" />
<path d="M140170000 79030000
L140170000 79400000
" />
<path d="M140170000 79030000
L136400000 79030000
" />
<path d="M146510000 84540580
L146510000 84259420
" />
<path d="M145490000 84540580
L145490000 84259420
" />
<g >
</g>
<g >
</g>
<g >
</g>
<g >
</g>
<g >
</g>
<g >
</g>
<g >
</g>
<g >
</g>
<g >
</g>
<g >
</g>
<g >
</g>
</g> 
</svg>
