<?xml version="1.0" standalone="no"?>
 <!DOCTYPE svg PUBLIC "-//W3C//DTD SVG 1.1//EN" 
 "http://www.w3.org/Graphics/SVG/1.1/DTD/svg11.dtd"> 
<svg
  xmlns:svg="http://www.w3.org/2000/svg"
  xmlns="http://www.w3.org/2000/svg"
  xmlns:xlink="http://www.w3.org/1999/xlink"
  version="1.1"
  width="29.700220cm" height="21.000720cm" viewBox="0 0 297002200 210007200">
<title>SVG Picture created as NCV68261-F_Paste.svg date 2022/09/01 15:07:17 </title>
  <desc>Picture generated by PCBNEW </desc>
<g style="fill:#000000; fill-opacity:1.000000;stroke:#000000; stroke-opacity:1.000000;
stroke-linecap:round; stroke-linejoin:round;"
 transform="translate(0 0) scale(1 1)">
</g>
<g style="fill:#000000; fill-opacity:0.0; 
stroke:#000000; stroke-width:0.000000; stroke-opacity:1; 
stroke-linecap:round; stroke-linejoin:round;">
<g >
</g>
<g style="fill:#000000; fill-opacity:0.0; 
stroke:#000000; stroke-width:1.000000; stroke-opacity:1; 
stroke-linecap:round; stroke-linejoin:round;">
</g>
<g style="fill:#000000; fill-opacity:1.0; 
stroke:#000000; stroke-width:1.000000; stroke-opacity:1; 
stroke-linecap:round; stroke-linejoin:round;">
<path style="fill:#000000; fill-opacity:1.0; 
stroke:#000000; stroke-width:1.000000; stroke-opacity:1; 
stroke-linecap:round; stroke-linejoin:round;fill-rule:evenodd;"
d="M 140190000.000000,84315000.000000
140190000.000000,83685000.000000
141010000.000000,83685000.000000
141010000.000000,84315000.000000
Z" /> 
<path style="fill:#000000; fill-opacity:1.0; 
stroke:#000000; stroke-width:1.000000; stroke-opacity:1; 
stroke-linecap:round; stroke-linejoin:round;fill-rule:evenodd;"
d="M 140190000.000000,85115000.000000
140190000.000000,84485000.000000
141010000.000000,84485000.000000
141010000.000000,85115000.000000
Z" /> 
<path style="fill:#000000; fill-opacity:1.0; 
stroke:#000000; stroke-width:1.000000; stroke-opacity:1; 
stroke-linecap:round; stroke-linejoin:round;fill-rule:evenodd;"
d="M 139225000.000000,83925000.000000
139225000.000000,83575000.000000
139875000.000000,83575000.000000
139875000.000000,83925000.000000
Z" /> 
<path style="fill:#000000; fill-opacity:1.0; 
stroke:#000000; stroke-width:1.000000; stroke-opacity:1; 
stroke-linecap:round; stroke-linejoin:round;fill-rule:evenodd;"
d="M 139225000.000000,84575000.000000
139225000.000000,84225000.000000
139875000.000000,84225000.000000
139875000.000000,84575000.000000
Z" /> 
<path style="fill:#000000; fill-opacity:1.0; 
stroke:#000000; stroke-width:1.000000; stroke-opacity:1; 
stroke-linecap:round; stroke-linejoin:round;fill-rule:evenodd;"
d="M 139225000.000000,85225000.000000
139225000.000000,84875000.000000
139875000.000000,84875000.000000
139875000.000000,85225000.000000
Z" /> 
<path style="fill:#000000; fill-opacity:1.0; 
stroke:#000000; stroke-width:1.000000; stroke-opacity:1; 
stroke-linecap:round; stroke-linejoin:round;fill-rule:evenodd;"
d="M 141325000.000000,85225000.000000
141325000.000000,84875000.000000
141975000.000000,84875000.000000
141975000.000000,85225000.000000
Z" /> 
<path style="fill:#000000; fill-opacity:1.0; 
stroke:#000000; stroke-width:1.000000; stroke-opacity:1; 
stroke-linecap:round; stroke-linejoin:round;fill-rule:evenodd;"
d="M 141325000.000000,84575000.000000
141325000.000000,84225000.000000
141975000.000000,84225000.000000
141975000.000000,84575000.000000
Z" /> 
<path style="fill:#000000; fill-opacity:1.0; 
stroke:#000000; stroke-width:1.000000; stroke-opacity:1; 
stroke-linecap:round; stroke-linejoin:round;fill-rule:evenodd;"
d="M 141325000.000000,83925000.000000
141325000.000000,83575000.000000
141975000.000000,83575000.000000
141975000.000000,83925000.000000
Z" /> 
</g>
<g >
</g>
<g style="fill:#000000; fill-opacity:1.0; 
stroke:#000000; stroke-width:1.000000; stroke-opacity:1; 
stroke-linecap:round; stroke-linejoin:round;">
<path style="fill:#000000; fill-opacity:1.0; 
stroke:#000000; stroke-width:1.000000; stroke-opacity:1; 
stroke-linecap:round; stroke-linejoin:round;fill-rule:evenodd;"
d="M 144675000.000000,83175000.000000
144751537.000000,83190224.000000
144816421.000000,83233579.000000
144859776.000000,83298463.000000
144875000.000000,83375000.000000
144875000.000000,83775000.000000
144859776.000000,83851537.000000
144816421.000000,83916421.000000
144751537.000000,83959776.000000
144675000.000000,83975000.000000
144125000.000000,83975000.000000
144048463.000000,83959776.000000
143983579.000000,83916421.000000
143940224.000000,83851537.000000
143925000.000000,83775000.000000
143925000.000000,83375000.000000
143940224.000000,83298463.000000
143983579.000000,83233579.000000
144048463.000000,83190224.000000
144125000.000000,83175000.000000
Z" /> 
<path style="fill:#000000; fill-opacity:1.0; 
stroke:#000000; stroke-width:1.000000; stroke-opacity:1; 
stroke-linecap:round; stroke-linejoin:round;fill-rule:evenodd;"
d="M 144675000.000000,84825000.000000
144751537.000000,84840224.000000
144816421.000000,84883579.000000
144859776.000000,84948463.000000
144875000.000000,85025000.000000
144875000.000000,85425000.000000
144859776.000000,85501537.000000
144816421.000000,85566421.000000
144751537.000000,85609776.000000
144675000.000000,85625000.000000
144125000.000000,85625000.000000
144048463.000000,85609776.000000
143983579.000000,85566421.000000
143940224.000000,85501537.000000
143925000.000000,85425000.000000
143925000.000000,85025000.000000
143940224.000000,84948463.000000
143983579.000000,84883579.000000
144048463.000000,84840224.000000
144125000.000000,84825000.000000
Z" /> 
</g>
<g >
</g>
<g style="fill:#000000; fill-opacity:1.0; 
stroke:#000000; stroke-width:1.000000; stroke-opacity:1; 
stroke-linecap:round; stroke-linejoin:round;">
<path style="fill:#000000; fill-opacity:1.0; 
stroke:#000000; stroke-width:1.000000; stroke-opacity:1; 
stroke-linecap:round; stroke-linejoin:round;fill-rule:evenodd;"
d="M 134975000.000000,83525000.000000
134990224.000000,83448463.000000
135033579.000000,83383579.000000
135098463.000000,83340224.000000
135175000.000000,83325000.000000
135575000.000000,83325000.000000
135651537.000000,83340224.000000
135716421.000000,83383579.000000
135759776.000000,83448463.000000
135775000.000000,83525000.000000
135775000.000000,84075000.000000
135759776.000000,84151537.000000
135716421.000000,84216421.000000
135651537.000000,84259776.000000
135575000.000000,84275000.000000
135175000.000000,84275000.000000
135098463.000000,84259776.000000
135033579.000000,84216421.000000
134990224.000000,84151537.000000
134975000.000000,84075000.000000
Z" /> 
<path style="fill:#000000; fill-opacity:1.0; 
stroke:#000000; stroke-width:1.000000; stroke-opacity:1; 
stroke-linecap:round; stroke-linejoin:round;fill-rule:evenodd;"
d="M 136625000.000000,83525000.000000
136640224.000000,83448463.000000
136683579.000000,83383579.000000
136748463.000000,83340224.000000
136825000.000000,83325000.000000
137225000.000000,83325000.000000
137301537.000000,83340224.000000
137366421.000000,83383579.000000
137409776.000000,83448463.000000
137425000.000000,83525000.000000
137425000.000000,84075000.000000
137409776.000000,84151537.000000
137366421.000000,84216421.000000
137301537.000000,84259776.000000
137225000.000000,84275000.000000
136825000.000000,84275000.000000
136748463.000000,84259776.000000
136683579.000000,84216421.000000
136640224.000000,84151537.000000
136625000.000000,84075000.000000
Z" /> 
</g>
<g >
</g>
<g style="fill:#000000; fill-opacity:1.0; 
stroke:#000000; stroke-width:1.000000; stroke-opacity:1; 
stroke-linecap:round; stroke-linejoin:round;">
<path style="fill:#000000; fill-opacity:1.0; 
stroke:#000000; stroke-width:1.000000; stroke-opacity:1; 
stroke-linecap:round; stroke-linejoin:round;fill-rule:evenodd;"
d="M 147905000.000000,81600000.000000
147905000.000000,82210000.000000
146635000.000000,82210000.000000
146635000.000000,81600000.000000
Z" /> 
<path style="fill:#000000; fill-opacity:1.0; 
stroke:#000000; stroke-width:1.000000; stroke-opacity:1; 
stroke-linecap:round; stroke-linejoin:round;fill-rule:evenodd;"
d="M 147905000.000000,80330000.000000
147905000.000000,80940000.000000
146635000.000000,80940000.000000
146635000.000000,80330000.000000
Z" /> 
<path style="fill:#000000; fill-opacity:1.0; 
stroke:#000000; stroke-width:1.000000; stroke-opacity:1; 
stroke-linecap:round; stroke-linejoin:round;fill-rule:evenodd;"
d="M 147905000.000000,79060000.000000
147905000.000000,79670000.000000
146635000.000000,79670000.000000
146635000.000000,79060000.000000
Z" /> 
<path style="fill:#000000; fill-opacity:1.0; 
stroke:#000000; stroke-width:1.000000; stroke-opacity:1; 
stroke-linecap:round; stroke-linejoin:round;fill-rule:evenodd;"
d="M 147905000.000000,77790000.000000
147905000.000000,78400000.000000
146635000.000000,78400000.000000
146635000.000000,77790000.000000
Z" /> 
<path style="fill:#000000; fill-opacity:1.0; 
stroke:#000000; stroke-width:1.000000; stroke-opacity:1; 
stroke-linecap:round; stroke-linejoin:round;fill-rule:evenodd;"
d="M 142315000.000000,80330000.000000
142315000.000000,80940000.000000
141295000.000000,80940000.000000
141295000.000000,80330000.000000
Z" /> 
<path style="fill:#000000; fill-opacity:1.0; 
stroke:#000000; stroke-width:1.000000; stroke-opacity:1; 
stroke-linecap:round; stroke-linejoin:round;fill-rule:evenodd;"
d="M 142315000.000000,81600000.000000
142315000.000000,82210000.000000
141295000.000000,82210000.000000
141295000.000000,81600000.000000
Z" /> 
<path style="fill:#000000; fill-opacity:1.0; 
stroke:#000000; stroke-width:1.000000; stroke-opacity:1; 
stroke-linecap:round; stroke-linejoin:round;fill-rule:evenodd;"
d="M 142315000.000000,77790000.000000
142315000.000000,78400000.000000
141295000.000000,78400000.000000
141295000.000000,77790000.000000
Z" /> 
<path style="fill:#000000; fill-opacity:1.0; 
stroke:#000000; stroke-width:1.000000; stroke-opacity:1; 
stroke-linecap:round; stroke-linejoin:round;fill-rule:evenodd;"
d="M 145815000.000000,78045000.000000
145815000.000000,81955000.000000
142005000.000000,81955000.000000
142005000.000000,78045000.000000
Z" /> 
<path style="fill:#000000; fill-opacity:1.0; 
stroke:#000000; stroke-width:1.000000; stroke-opacity:1; 
stroke-linecap:round; stroke-linejoin:round;fill-rule:evenodd;"
d="M 142315000.000000,79060000.000000
142315000.000000,79670000.000000
141295000.000000,79670000.000000
141295000.000000,79060000.000000
Z" /> 
</g>
<g >
</g>
<g style="fill:#000000; fill-opacity:1.0; 
stroke:#000000; stroke-width:1.000000; stroke-opacity:1; 
stroke-linecap:round; stroke-linejoin:round;">
<path style="fill:#000000; fill-opacity:1.0; 
stroke:#000000; stroke-width:1.000000; stroke-opacity:1; 
stroke-linecap:round; stroke-linejoin:round;fill-rule:evenodd;"
d="M 139595000.000000,80940000.000000
139595000.000000,80330000.000000
140615000.000000,80330000.000000
140615000.000000,80940000.000000
Z" /> 
<path style="fill:#000000; fill-opacity:1.0; 
stroke:#000000; stroke-width:1.000000; stroke-opacity:1; 
stroke-linecap:round; stroke-linejoin:round;fill-rule:evenodd;"
d="M 136095000.000000,81955000.000000
136095000.000000,78045000.000000
139905000.000000,78045000.000000
139905000.000000,81955000.000000
Z" /> 
<path style="fill:#000000; fill-opacity:1.0; 
stroke:#000000; stroke-width:1.000000; stroke-opacity:1; 
stroke-linecap:round; stroke-linejoin:round;fill-rule:evenodd;"
d="M 139595000.000000,82210000.000000
139595000.000000,81600000.000000
140615000.000000,81600000.000000
140615000.000000,82210000.000000
Z" /> 
<path style="fill:#000000; fill-opacity:1.0; 
stroke:#000000; stroke-width:1.000000; stroke-opacity:1; 
stroke-linecap:round; stroke-linejoin:round;fill-rule:evenodd;"
d="M 139595000.000000,78400000.000000
139595000.000000,77790000.000000
140615000.000000,77790000.000000
140615000.000000,78400000.000000
Z" /> 
<path style="fill:#000000; fill-opacity:1.0; 
stroke:#000000; stroke-width:1.000000; stroke-opacity:1; 
stroke-linecap:round; stroke-linejoin:round;fill-rule:evenodd;"
d="M 139595000.000000,79670000.000000
139595000.000000,79060000.000000
140615000.000000,79060000.000000
140615000.000000,79670000.000000
Z" /> 
<path style="fill:#000000; fill-opacity:1.0; 
stroke:#000000; stroke-width:1.000000; stroke-opacity:1; 
stroke-linecap:round; stroke-linejoin:round;fill-rule:evenodd;"
d="M 134005000.000000,82210000.000000
134005000.000000,81600000.000000
135275000.000000,81600000.000000
135275000.000000,82210000.000000
Z" /> 
<path style="fill:#000000; fill-opacity:1.0; 
stroke:#000000; stroke-width:1.000000; stroke-opacity:1; 
stroke-linecap:round; stroke-linejoin:round;fill-rule:evenodd;"
d="M 134005000.000000,80940000.000000
134005000.000000,80330000.000000
135275000.000000,80330000.000000
135275000.000000,80940000.000000
Z" /> 
<path style="fill:#000000; fill-opacity:1.0; 
stroke:#000000; stroke-width:1.000000; stroke-opacity:1; 
stroke-linecap:round; stroke-linejoin:round;fill-rule:evenodd;"
d="M 134005000.000000,79670000.000000
134005000.000000,79060000.000000
135275000.000000,79060000.000000
135275000.000000,79670000.000000
Z" /> 
<path style="fill:#000000; fill-opacity:1.0; 
stroke:#000000; stroke-width:1.000000; stroke-opacity:1; 
stroke-linecap:round; stroke-linejoin:round;fill-rule:evenodd;"
d="M 134005000.000000,78400000.000000
134005000.000000,77790000.000000
135275000.000000,77790000.000000
135275000.000000,78400000.000000
Z" /> 
</g>
<g >
</g>
<g style="fill:#000000; fill-opacity:1.0; 
stroke:#000000; stroke-width:1.000000; stroke-opacity:1; 
stroke-linecap:round; stroke-linejoin:round;">
<path style="fill:#000000; fill-opacity:1.0; 
stroke:#000000; stroke-width:1.000000; stroke-opacity:1; 
stroke-linecap:round; stroke-linejoin:round;fill-rule:evenodd;"
d="M 151100000.000000,80750000.000000
151195671.000000,80769030.000000
151276777.000000,80823223.000000
151330970.000000,80904329.000000
151350000.000000,81000000.000000
151350000.000000,81650000.000000
151330970.000000,81745671.000000
151276777.000000,81826777.000000
151195671.000000,81880970.000000
151100000.000000,81900000.000000
148900000.000000,81900000.000000
148804329.000000,81880970.000000
148723223.000000,81826777.000000
148669030.000000,81745671.000000
148650000.000000,81650000.000000
148650000.000000,81000000.000000
148669030.000000,80904329.000000
148723223.000000,80823223.000000
148804329.000000,80769030.000000
148900000.000000,80750000.000000
Z" /> 
<path style="fill:#000000; fill-opacity:1.0; 
stroke:#000000; stroke-width:1.000000; stroke-opacity:1; 
stroke-linecap:round; stroke-linejoin:round;fill-rule:evenodd;"
d="M 151100000.000000,83700000.000000
151195671.000000,83719030.000000
151276777.000000,83773223.000000
151330970.000000,83854329.000000
151350000.000000,83950000.000000
151350000.000000,84600000.000000
151330970.000000,84695671.000000
151276777.000000,84776777.000000
151195671.000000,84830970.000000
151100000.000000,84850000.000000
148900000.000000,84850000.000000
148804329.000000,84830970.000000
148723223.000000,84776777.000000
148669030.000000,84695671.000000
148650000.000000,84600000.000000
148650000.000000,83950000.000000
148669030.000000,83854329.000000
148723223.000000,83773223.000000
148804329.000000,83719030.000000
148900000.000000,83700000.000000
Z" /> 
</g>
<g >
</g>
<g style="fill:#000000; fill-opacity:1.0; 
stroke:#000000; stroke-width:1.000000; stroke-opacity:1; 
stroke-linecap:round; stroke-linejoin:round;">
<path style="fill:#000000; fill-opacity:1.0; 
stroke:#000000; stroke-width:1.000000; stroke-opacity:1; 
stroke-linecap:round; stroke-linejoin:round;fill-rule:evenodd;"
d="M 145750000.000000,85625000.000000
145663896.000000,85607873.000000
145590901.000000,85559099.000000
145542127.000000,85486104.000000
145525000.000000,85400000.000000
145525000.000000,84950000.000000
145542127.000000,84863896.000000
145590901.000000,84790901.000000
145663896.000000,84742127.000000
145750000.000000,84725000.000000
146250000.000000,84725000.000000
146336104.000000,84742127.000000
146409099.000000,84790901.000000
146457873.000000,84863896.000000
146475000.000000,84950000.000000
146475000.000000,85400000.000000
146457873.000000,85486104.000000
146409099.000000,85559099.000000
146336104.000000,85607873.000000
146250000.000000,85625000.000000
Z" /> 
<path style="fill:#000000; fill-opacity:1.0; 
stroke:#000000; stroke-width:1.000000; stroke-opacity:1; 
stroke-linecap:round; stroke-linejoin:round;fill-rule:evenodd;"
d="M 145750000.000000,84075000.000000
145663896.000000,84057873.000000
145590901.000000,84009099.000000
145542127.000000,83936104.000000
145525000.000000,83850000.000000
145525000.000000,83400000.000000
145542127.000000,83313896.000000
145590901.000000,83240901.000000
145663896.000000,83192127.000000
145750000.000000,83175000.000000
146250000.000000,83175000.000000
146336104.000000,83192127.000000
146409099.000000,83240901.000000
146457873.000000,83313896.000000
146475000.000000,83400000.000000
146475000.000000,83850000.000000
146457873.000000,83936104.000000
146409099.000000,84009099.000000
146336104.000000,84057873.000000
146250000.000000,84075000.000000
Z" /> 
</g>
<g >
</g>
<g style="fill:#000000; fill-opacity:1.0; 
stroke:#000000; stroke-width:1.000000; stroke-opacity:1; 
stroke-linecap:round; stroke-linejoin:round;">
<path style="fill:#000000; fill-opacity:1.0; 
stroke:#000000; stroke-width:1.000000; stroke-opacity:1; 
stroke-linecap:round; stroke-linejoin:round;fill-rule:evenodd;"
d="M 133100000.000000,80350000.000000
133195671.000000,80369030.000000
133276777.000000,80423223.000000
133330970.000000,80504329.000000
133350000.000000,80600000.000000
133350000.000000,81250000.000000
133330970.000000,81345671.000000
133276777.000000,81426777.000000
133195671.000000,81480970.000000
133100000.000000,81500000.000000
130900000.000000,81500000.000000
130804329.000000,81480970.000000
130723223.000000,81426777.000000
130669030.000000,81345671.000000
130650000.000000,81250000.000000
130650000.000000,80600000.000000
130669030.000000,80504329.000000
130723223.000000,80423223.000000
130804329.000000,80369030.000000
130900000.000000,80350000.000000
Z" /> 
<path style="fill:#000000; fill-opacity:1.0; 
stroke:#000000; stroke-width:1.000000; stroke-opacity:1; 
stroke-linecap:round; stroke-linejoin:round;fill-rule:evenodd;"
d="M 133100000.000000,83300000.000000
133195671.000000,83319030.000000
133276777.000000,83373223.000000
133330970.000000,83454329.000000
133350000.000000,83550000.000000
133350000.000000,84200000.000000
133330970.000000,84295671.000000
133276777.000000,84376777.000000
133195671.000000,84430970.000000
133100000.000000,84450000.000000
130900000.000000,84450000.000000
130804329.000000,84430970.000000
130723223.000000,84376777.000000
130669030.000000,84295671.000000
130650000.000000,84200000.000000
130650000.000000,83550000.000000
130669030.000000,83454329.000000
130723223.000000,83373223.000000
130804329.000000,83319030.000000
130900000.000000,83300000.000000
Z" /> 
</g>
<g >
</g>
<g >
</g>
<g >
</g>
</g> 
</svg>
